<svg id="vicon-main_logo" viewBox="0 2 199.5 26" width="100%" height="100%"><path fill="#333" d="M0 12.5v10.4h6.9v-6.5l.8-.8.7-.7 2.4 4 2.4 4h8.4l-4-6.6-4.2-6.3 3.8-4L21 2h-8.4L9.8 5.2 7 8.3V5.1L6.9 2H0v10.5zm24.7-4.9a8 8 0 0 0-4.7 4.2c-.5 1-.6 1.5-.6 3.5s.1 2.6.6 3.6c1.4 3.1 4.7 4.7 9 4.4 4.4-.3 7-2.6 7.6-6.7.5-4-1-7-4.4-8.6-1-.5-1.6-.6-3.9-.6-1.8 0-3 0-3.6.2zm4.2 4.1c1 .4 1.5 1.9 1.5 3.6 0 2.6-.7 3.7-2.3 3.7-1.6 0-2.6-1.4-2.6-3.9 0-1.8 1.3-3.6 2.5-3.7l.9.3zm53-4c-3.6 1-5.7 4.4-5.5 8.3a7.3 7.3 0 0 0 4.8 6.8c1.8.7 6.2.7 8.1 0 1.6-.7 3-1.9 3.7-3.1.8-1.6.8-1.6-2.4-1.6h-2.9l-.7.7c-.7.7-.8.7-1.8.6-1.2-.1-2.2-1-2.5-2l-.1-.7H94V28h6.2V21.7l.6.5c1.2 1.2 3.4 1.5 5.6.8 2.4-.7 4.6-3.6 4.7-6.2v-.9l.2 1c.9 4.5 4.4 6.8 9.7 6.4 3.9-.2 6.2-1.9 7.1-4.8l.4-1.2v1.5c0 1.6.2 2 1.3 3.2 1.7 1.8 6.2 1.9 8.9.2l.8-.6.2.7.1.6h3.2l3.3-.1-.4-.6c-.4-.4-.5-1.2-.6-6-.1-6.7-.2-7-2.4-8.1-1.3-.7-1.5-.7-4.6-.8a17 17 0 0 0-4.7.3c-2.6.7-4.1 2.2-4.1 4.1v.9h3c2.9 0 2.9 0 3-.6.4-1.4 3.9-1.2 3.6.3-.1.6-1 1-3.9 1.3-3.2.5-4.8 1-5.7 2-.4.5-.7 1-.7 1.2 0 .2-.9.2-3.3.2h-3.4l-.1.5c-.2 1-1 1.5-2 1.5-1.6 0-2.5-1.2-2.5-3.7 0-.7.1-1.7.3-2.1.4-.9 1.4-1.8 2-1.8.9 0 1.8.7 2 1.5l.4.8h6.2l-.2-1c-.3-2-1.7-3.7-3.8-4.7-2.4-1.1-7.3-1-9.4.4a7.7 7.7 0 0 0-3.5 4.7l-.4 1.4-.1-1.2c-.4-3.6-3-6-6.4-6-1.8 0-2.8.3-4 1.2l-.8.7V7.5H94v4.2c0 3.3 0 4-.2 2.9-.5-3-2.3-5.6-4.8-6.7-1.4-.6-5.6-.8-7.2-.3zm5 4.2c.4.4.8 1 .8 1.2 0 .4-.2.4-2.6.4-1.6 0-2.5 0-2.5-.2 0-.5.7-1.6 1-1.8.3-.2 1-.3 1.6-.3.9 0 1.2.1 1.7.7zm17.2.6c.7.7 1.1 2.4.8 3.7-.8 3.4-4.2 3-4.5-.5-.2-1.6 0-2.2.7-3.1.8-1 2-1 3-.1zm35.1 4.5c0 1.6-1 2.7-2.4 2.7-1.2 0-1.8-.3-1.8-1.1 0-.9.5-1.2 2.3-1.7 2-.5 1.9-.5 1.9.1zM37 15.2V23h5.6v-4.3l-.2-4.3 1.4 4.3 1.4 4.3h3.1l1-3.4 1.4-4.2c.2-.7.2-.2.2 3.4l-.1 4.2h5.5V7.5h-7.1l-.8 2.7a535 535 0 0 1-1.7 5l-1.4-3.9-1.1-3.7h-3.6L37 7.5v7.7zm20 0V23h5.6v-2.8a40.5 40.5 0 0 0-.4-5.8l1.4 4.3 1.4 4.3H68l1.2-3.7 1.3-4.3v8H76V7.5h-7l-.9 2.7c-1.5 4.9-1.7 5.3-1.8 4.9L65 11l-1-3.5h-3.5L57 7.5v7.7zm89.6 0V23h6.2v-5.8h4.1V23H163.2V7.5H157v5.1h-4.2V7.5h-6.2v7.7zm17-5.3v2.5h4.8v10.5h6.2V12.4h5.1V7.5h-16V10zm16.8 0v2.5h3.2V23l6-.1c6.5 0 7.2-.2 8.5-1.4a4.9 4.9 0 0 0 1-5.2c-1-2.3-2.9-3.3-6.9-3.3h-2.6V7.5h-9.2V10zm12.7 7.2c.2.2.4.6.4 1 0 .8-.8 1.2-2.5 1.2h-1.4v-2.6h1.5c1.1 0 1.7.1 2 .4z"></path></svg>