<svg xmlns="http://www.w3.org/2000/svg" width="259" height="77" viewBox="0 0 259 77">
    <defs>
        <linearGradient id="a" x1="49.482%" x2="50%" y1="23.476%" y2="100%">
            <stop offset="0%" stop-color="#3ACA60" stop-opacity=".076"/>
            <stop offset="100%" stop-color="#FFF" stop-opacity=".086"/>
        </linearGradient>
    </defs>
    <g fill="none" fill-rule="evenodd">
        <path fill="url(#a)" d="M35.293 28.826l10.965-6.479L58.458 0l9.728 7.934 10.502 3.041 11.736-1.19 11.428 4.1 11.119 5.156 12.2-3.438 10.5-4.628 12.016-4.595 11.18 11.504 10.938 2.068 11.373-6.931 11.046 2.506 11.424-8.86 11.14-2.954 10.7 2.56 11.45-1.759 11.33 4.526 11.449 11.046 11.247 6.262 10.958-20.754 10.871 9.506v59.156L36.735 75.63z" transform="translate(-35 1)"/>
        <path stroke="#3ACA60" stroke-linecap="round" stroke-linejoin="round" stroke-width="1.2" d="M-35 32.868l11.686-10.447L-12.095 33l11.374-3.174 11.063-6.479L22.652 1l9.815 7.934 10.596 3.041 11.841-1.19 11.53 4.1 11.22 5.156 12.309-3.438 10.595-4.628L112.68 7.38l11.28 11.504 11.037 2.068 11.474-6.931 11.145 2.506 11.527-8.86 11.24-2.954 10.795 2.56 11.552-1.759 11.432 4.526 11.552 11.046 11.349 6.262L248.12 6.594l10.969 9.506 11.17-5.3 11.363 9.158 10.167 2.446L303 16.909"/>
    </g>
</svg>
