<svg width="341.29" height="108.87" xmlns="http://www.w3.org/2000/svg">
 <defs>
  <style>.cls-1{fill:#9aa2ac;}.cls-2{fill:#ee1a2d;}</style>
 </defs>
 <title>Finplatform_logo_rus_ะบั</title>
 <g>
  <title>background</title>
  <rect fill="none" id="canvas_background" height="402" width="582" y="-1" x="-1"/>
 </g>
 <g>
  <title>Layer 1</title>
  <path id="svg_1" d="m150.659993,90.809997l16.47,0a0.67,0.67 0 0 1 0.48,0.2a0.64,0.64 0 0 1 0.2,0.47l0,16.15a0.64,0.64 0 0 1 -0.2,0.47a0.67,0.67 0 0 1 -0.48,0.2l-5,0a0.67,0.67 0 0 1 -0.48,-0.2a0.64,0.64 0 0 1 -0.2,-0.47l0,-11.42l-5.1,0l0,11.42a0.64,0.64 0 0 1 -0.2,0.47a0.67,0.67 0 0 1 -0.48,0.2l-5,0a0.69,0.69 0 0 1 -0.48,-0.19a0.63,0.63 0 0 1 -0.2,-0.49l0,-16.14a0.64,0.64 0 0 1 0.2,-0.47a0.67,0.67 0 0 1 0.47,-0.2z" class="cls-1"/>
  <path id="svg_2" d="m171.319993,108.329997a0.67,0.67 0 0 1 -0.48,-0.2a0.64,0.64 0 0 1 -0.21,-0.48l0,-4a0.66,0.66 0 0 1 0.2,-0.47a0.63,0.63 0 0 1 0.46,-0.2a1.81,1.81 0 0 0 1.42,-0.45a2.17,2.17 0 0 0 0.39,-1.44l0,-9.62a0.67,0.67 0 0 1 0.66,-0.66l13.93,0a0.63,0.63 0 0 1 0.46,0.2a0.66,0.66 0 0 1 0.2,0.47l0,16.15a0.65,0.65 0 0 1 -0.2,0.47a0.63,0.63 0 0 1 -0.46,0.2l-4.56,0a0.63,0.63 0 0 1 -0.47,-0.2a0.65,0.65 0 0 1 -0.2,-0.47l0,-11.45l-3.47,0l0,4.93a6.88,6.88 0 0 1 -2,5.42a8.23,8.23 0 0 1 -5.67,1.8z" class="cls-1"/>
  <path id="svg_3" d="m196.339993,108.309997l-4.63,0a0.51,0.51 0 0 1 -0.38,-0.16a0.46,0.46 0 0 1 -0.16,-0.31a0.77,0.77 0 0 1 0,-0.23l5.34,-16a1,1 0 0 1 1.1,-0.83l6.81,0a1,1 0 0 1 1.1,0.83l5.34,16a0.77,0.77 0 0 1 0,0.23a0.46,0.46 0 0 1 -0.16,0.31a0.51,0.51 0 0 1 -0.38,0.16l-4.53,0a1.13,1.13 0 0 1 -1.1,-0.85l-0.61,-1.75l-6,0l-0.61,1.75a1.13,1.13 0 0 1 -1.13,0.85zm6.44,-7.47l-1.74,-5.2l-1.74,5.2l3.48,0z" class="cls-1"/>
  <path id="svg_4" d="m213.339993,90.809997l16.91,0a0.63,0.63 0 0 1 0.46,0.2a0.66,0.66 0 0 1 0.2,0.47l0,4a0.65,0.65 0 0 1 -0.2,0.47a0.63,0.63 0 0 1 -0.46,0.2l-5.27,0l0,11.45a0.65,0.65 0 0 1 -0.2,0.47a0.63,0.63 0 0 1 -0.47,0.2l-5,0a0.63,0.63 0 0 1 -0.46,-0.2a0.65,0.65 0 0 1 -0.2,-0.47l0,-11.42l-5.27,0a0.63,0.63 0 0 1 -0.47,-0.2a0.65,0.65 0 0 1 -0.2,-0.47l0,-4a0.66,0.66 0 0 1 0.2,-0.47a0.63,0.63 0 0 1 0.43,-0.23z" class="cls-1"/>
  <path id="svg_5" d="m255.299993,99.459997a7.62,7.62 0 0 1 -0.94,3.86a6.21,6.21 0 0 1 -2.75,2.51a9.78,9.78 0 0 1 -4.32,0.88l-0.56,0l0,2.16l-5.38,0l0,-2.16l-0.56,0a9.58,9.58 0 0 1 -4.28,-0.88a6.32,6.32 0 0 1 -2.75,-2.52a7.51,7.51 0 0 1 -1,-3.84a6.6,6.6 0 0 1 2,-5.18a8.41,8.41 0 0 1 5.81,-1.84l0.68,0l0,-2.2l5.38,0l0,2.2l0.7,0a8.44,8.44 0 0 1 5.8,1.84a6.57,6.57 0 0 1 2.17,5.17zm-13.95,-3.25l-0.2,0a2.34,2.34 0 0 0 -1.95,0.9a4,4 0 0 0 -0.7,2.5a3.75,3.75 0 0 0 0.72,2.46a2.47,2.47 0 0 0 2,0.87l0.12,0l0.01,-6.73zm8.27,3.39a3.91,3.91 0 0 0 -0.72,-2.48a2.36,2.36 0 0 0 -2,-0.91l-0.21,0l0,6.74l0.14,0a2.48,2.48 0 0 0 2,-0.88a3.74,3.74 0 0 0 0.79,-2.47z" class="cls-1"/>
  <path id="svg_6" d="m275.849993,98.069997l0,3a6.84,6.84 0 0 1 -1.25,4.19a6.75,6.75 0 0 1 -3.27,2.39a16.48,16.48 0 0 1 -9.55,0a6.75,6.75 0 0 1 -3.27,-2.39a6.91,6.91 0 0 1 -1.25,-4.24l0,-2.88a6.3,6.3 0 0 1 2.59,-5.51a13.24,13.24 0 0 1 13.43,0a6.25,6.25 0 0 1 2.57,5.44zm-11.85,-0.4l0,3.78a1.75,1.75 0 0 0 0.69,1.49a3,3 0 0 0 1.86,0.52a3,3 0 0 0 1.86,-0.53a1.79,1.79 0 0 0 0.69,-1.5l0,-3.73a1.79,1.79 0 0 0 -0.69,-1.5a3,3 0 0 0 -1.86,-0.53a3,3 0 0 0 -1.86,0.52a1.75,1.75 0 0 0 -0.69,1.48z" class="cls-1"/>
  <path id="svg_7" d="m280.999993,90.809997l9.35,0a8.53,8.53 0 0 1 5.63,1.72a5.93,5.93 0 0 1 0.33,8.71q-1.75,1.59 -6,1.59l-3.3,0l0,4.8a0.68,0.68 0 0 1 -0.67,0.67l-5.37,0a0.68,0.68 0 0 1 -0.67,-0.67l0,-16.15a0.68,0.68 0 0 1 0.67,-0.67l0.03,0zm6.05,4.65l0,2.75l3.17,0a1.23,1.23 0 0 0 1.3,-1.33a1.5,1.5 0 0 0 -0.35,-1a1.2,1.2 0 0 0 -1,-0.4l-3.12,-0.02z" class="cls-1"/>
  <path id="svg_8" d="m313.699993,90.809997l4.67,0a0.67,0.67 0 0 1 0.48,0.2a0.64,0.64 0 0 1 0.2,0.47l0,16.15a0.64,0.64 0 0 1 -0.2,0.47a0.67,0.67 0 0 1 -0.48,0.2l-4.58,0a0.67,0.67 0 0 1 -0.48,-0.2a0.64,0.64 0 0 1 -0.2,-0.47l0,-7.75l-1.86,3.6a1.06,1.06 0 0 1 -0.46,0.46a1.29,1.29 0 0 1 -0.61,0.16l-1.79,0a1.11,1.11 0 0 1 -0.71,-0.22a1.19,1.19 0 0 1 -0.36,-0.4l-1.86,-3.6l0,7.75a0.64,0.64 0 0 1 -0.2,0.47a0.67,0.67 0 0 1 -0.48,0.2l-4.62,0a0.67,0.67 0 0 1 -0.49,-0.2a0.64,0.64 0 0 1 -0.2,-0.47l0,-16.15a0.64,0.64 0 0 1 0.2,-0.47a0.67,0.67 0 0 1 0.49,-0.2l4.63,0a1.2,1.2 0 0 1 1.1,0.67l3.34,6l3.34,-6a1.2,1.2 0 0 1 1.13,-0.67z" class="cls-1"/>
  <path id="svg_9" d="m326.119993,108.309997l-4.82,0a0.54,0.54 0 0 1 -0.39,-0.16a0.45,0.45 0 0 1 -0.17,-0.31a0.73,0.73 0 0 1 0,-0.23l5.56,-16a1.07,1.07 0 0 1 1.15,-0.83l7.09,0a1.07,1.07 0 0 1 1.15,0.83l5.56,16a0.76,0.76 0 0 1 0,0.23a0.46,0.46 0 0 1 -0.17,0.31a0.54,0.54 0 0 1 -0.39,0.16l-4.82,0a1.17,1.17 0 0 1 -1.15,-0.85l-0.64,-1.75l-6.22,0l-0.64,1.75a1.17,1.17 0 0 1 -1.1,0.85zm6.71,-7.47l-1.81,-5.2l-1.81,5.2l3.62,0z" class="cls-1"/>
  <path id="svg_10" d="m150.789993,67.949997l4.74,0a0.67,0.67 0 0 1 0.48,0.2a0.64,0.64 0 0 1 0.2,0.47l0,7.33l5.56,-7.53a1.2,1.2 0 0 1 1,-0.5l4.13,0a0.67,0.67 0 0 1 0.48,0.2a0.64,0.64 0 0 1 0.2,0.47l0,16.15a0.64,0.64 0 0 1 -0.2,0.47a0.67,0.67 0 0 1 -0.48,0.2l-4.74,0a0.67,0.67 0 0 1 -0.48,-0.2a0.64,0.64 0 0 1 -0.2,-0.47l0,-6.79l-5.56,6.95a1.24,1.24 0 0 1 -1,0.53l-4.13,0a0.67,0.67 0 0 1 -0.48,-0.2a0.64,0.64 0 0 1 -0.2,-0.47l0,-16.17a0.64,0.64 0 0 1 0.2,-0.47a0.67,0.67 0 0 1 0.48,-0.17z" class="cls-2"/>
  <path id="svg_11" d="m183.789993,67.949997l5.25,0a0.67,0.67 0 0 1 0.48,0.2a0.64,0.64 0 0 1 0.2,0.47l0,16.15a0.64,0.64 0 0 1 -0.2,0.47a0.67,0.67 0 0 1 -0.48,0.2l-5.25,0a0.67,0.67 0 0 1 -0.48,-0.2a0.64,0.64 0 0 1 -0.2,-0.47l0,-5.33l-5.1,0l0,5.33a0.64,0.64 0 0 1 -0.2,0.47a0.67,0.67 0 0 1 -0.49,0.2l-5.25,0a0.69,0.69 0 0 1 -0.48,-0.19a0.63,0.63 0 0 1 -0.2,-0.49l0,-16.17a0.64,0.64 0 0 1 0.2,-0.47a0.67,0.67 0 0 1 0.48,-0.2l5.25,0a0.67,0.67 0 0 1 0.49,0.2a0.64,0.64 0 0 1 0.2,0.47l0,5.13l5.1,0l0,-5.12a0.64,0.64 0 0 1 0.2,-0.47a0.67,0.67 0 0 1 0.48,-0.18z" class="cls-2"/>
  <path id="svg_12" d="m197.419993,85.419997l-4.82,0a0.54,0.54 0 0 1 -0.39,-0.16a0.45,0.45 0 0 1 -0.17,-0.31a0.73,0.73 0 0 1 0,-0.23l5.56,-16a1.07,1.07 0 0 1 1.19,-0.77l7.09,0a1.07,1.07 0 0 1 1.15,0.83l5.56,16a0.76,0.76 0 0 1 0,0.23a0.46,0.46 0 0 1 -0.17,0.31a0.54,0.54 0 0 1 -0.39,0.16l-4.82,0a1.17,1.17 0 0 1 -1.15,-0.85l-0.64,-1.75l-6.22,0l-0.64,1.75a1.17,1.17 0 0 1 -1.14,0.79zm6.71,-7.47l-1.81,-5.2l-1.81,5.2l3.62,0z" class="cls-2"/>
  <path id="svg_13" d="m227.159993,67.949997l5.25,0a0.67,0.67 0 0 1 0.48,0.2a0.64,0.64 0 0 1 0.2,0.47l0,16.15a0.64,0.64 0 0 1 -0.2,0.47a0.67,0.67 0 0 1 -0.48,0.2l-5.25,0a0.67,0.67 0 0 1 -0.48,-0.2a0.64,0.64 0 0 1 -0.2,-0.47l0,-5.33l-5.1,0l0,5.33a0.64,0.64 0 0 1 -0.2,0.47a0.67,0.67 0 0 1 -0.49,0.2l-5.25,0a0.69,0.69 0 0 1 -0.48,-0.19a0.63,0.63 0 0 1 -0.2,-0.49l0,-16.17a0.64,0.64 0 0 1 0.2,-0.47a0.67,0.67 0 0 1 0.48,-0.2l5.25,0a0.67,0.67 0 0 1 0.49,0.2a0.64,0.64 0 0 1 0.2,0.47l0,5.13l5.1,0l0,-5.12a0.64,0.64 0 0 1 0.2,-0.47a0.67,0.67 0 0 1 0.48,-0.18z" class="cls-2"/>
  <path id="svg_14" d="m243.249993,74.779997l0,3.78a1.74,1.74 0 0 0 0.7,1.49a3,3 0 0 0 1.84,0.52a3.12,3.12 0 0 0 1.65,-0.33a2.58,2.58 0 0 0 0.85,-1a1,1 0 0 1 0.91,-0.64l5.51,0a0.55,0.55 0 0 1 0.39,0.16a0.51,0.51 0 0 1 0.17,0.38a5.45,5.45 0 0 1 -2.24,4.18a8.6,8.6 0 0 1 -3,1.51a14.87,14.87 0 0 1 -4.39,0.58a13.57,13.57 0 0 1 -4.6,-0.74a7.22,7.22 0 0 1 -3.38,-2.44a6.62,6.62 0 0 1 -1.3,-4.16l0,-2.88a6.67,6.67 0 0 1 1.3,-4.17q2.45,-3.17 8.19,-3.17a14.09,14.09 0 0 1 4.18,0.58a8.61,8.61 0 0 1 3,1.51a5.45,5.45 0 0 1 2.24,4.18a0.51,0.51 0 0 1 -0.17,0.38a0.55,0.55 0 0 1 -0.39,0.16l-5.52,0a1,1 0 0 1 -0.91,-0.64a2.58,2.58 0 0 0 -0.85,-1a3.13,3.13 0 0 0 -1.65,-0.33a3,3 0 0 0 -1.84,0.52a1.74,1.74 0 0 0 -0.69,1.57z" class="cls-2"/>
  <path id="svg_15" d="m276.789993,75.179997l0,3a6.74,6.74 0 0 1 -1.27,4.19a6.89,6.89 0 0 1 -3.34,2.39a17.13,17.13 0 0 1 -9.74,0a6.61,6.61 0 0 1 -4.62,-6.63l0,-2.88a6.25,6.25 0 0 1 2.64,-5.51a13.74,13.74 0 0 1 13.69,0a6.21,6.21 0 0 1 2.64,5.44zm-12.09,-0.4l0,3.78a1.74,1.74 0 0 0 0.7,1.49a3.12,3.12 0 0 0 1.9,0.52a3.07,3.07 0 0 0 1.9,-0.53a1.77,1.77 0 0 0 0.7,-1.5l0,-3.73a1.77,1.77 0 0 0 -0.7,-1.5a3.07,3.07 0 0 0 -1.9,-0.53a3.12,3.12 0 0 0 -1.9,0.52a1.74,1.74 0 0 0 -0.73,1.48l0.03,0z" class="cls-2"/>
  <path id="svg_16" d="m298.659993,79.949997q0,5.5 -7.19,5.5l-10.51,0a0.67,0.67 0 0 1 -0.49,-0.2a0.64,0.64 0 0 1 -0.2,-0.47l0,-16.19a0.64,0.64 0 0 1 0.2,-0.47a0.67,0.67 0 0 1 0.49,-0.2l10.25,0a9,9 0 0 1 5.34,1.29a4.54,4.54 0 0 1 1.72,3.89l0,0.08a3.24,3.24 0 0 1 -0.66,2a3,3 0 0 1 -1.38,1.08a3.24,3.24 0 0 1 1.71,1.31a3.92,3.92 0 0 1 0.72,2.38zm-7.56,-5.79a1.33,1.33 0 0 0 0.27,-0.81a1.18,1.18 0 0 0 -0.27,-0.78a1,1 0 0 0 -0.78,-0.33l-3.42,0l0,2.28l3.42,0a0.91,0.91 0 0 0 0.78,-0.39l0,0.03zm-4.19,4.54l0,2.45l3.7,0a1,1 0 0 0 0.88,-0.39a1.39,1.39 0 0 0 0.29,-0.86l0,0a1.19,1.19 0 0 0 -0.32,-0.83a1.1,1.1 0 0 0 -0.85,-0.35l-3.7,-0.02z" class="cls-2"/>
  <path id="svg_17" d="m305.789993,85.419997l-4.82,0a0.54,0.54 0 0 1 -0.39,-0.16a0.45,0.45 0 0 1 -0.17,-0.31a0.73,0.73 0 0 1 0,-0.23l5.56,-16a1.07,1.07 0 0 1 1.15,-0.83l7.09,0a1.07,1.07 0 0 1 1.15,0.83l5.56,16a0.76,0.76 0 0 1 0,0.23a0.46,0.46 0 0 1 -0.17,0.31a0.54,0.54 0 0 1 -0.39,0.16l-4.77,0a1.17,1.17 0 0 1 -1.15,-0.85l-0.64,-1.75l-6.22,0l-0.64,1.75a1.17,1.17 0 0 1 -1.15,0.85zm6.71,-7.47l-1.81,-5.2l-1.81,5.2l3.62,0z" class="cls-2"/>
  <path id="svg_18" d="m322.629993,73.949997a5.35,5.35 0 0 1 2,-4.42a8.64,8.64 0 0 1 5.53,-1.62l9.92,0a0.67,0.67 0 0 1 0.48,0.2a0.64,0.64 0 0 1 0.2,0.47l0,16.15a0.64,0.64 0 0 1 -0.2,0.47a0.67,0.67 0 0 1 -0.48,0.2l-5.51,0a0.67,0.67 0 0 1 -0.48,-0.2a0.64,0.64 0 0 1 -0.2,-0.47l0,-4.9l-2.1,0l-2.24,5a1.09,1.09 0 0 1 -1.07,0.63l-5.79,0a0.54,0.54 0 0 1 -0.39,-0.16a0.47,0.47 0 0 1 -0.17,-0.34a0.62,0.62 0 0 1 0.05,-0.28l3.14,-5.75a5.24,5.24 0 0 1 -2.69,-4.98zm11.3,1.25l0,-2.65l-3.19,0a1,1 0 0 0 -0.88,0.41a1.62,1.62 0 0 0 -0.29,1a1.36,1.36 0 0 0 0.31,0.91a1.07,1.07 0 0 0 0.87,0.36l3.18,-0.03z" class="cls-2"/>
  <path id="svg_19" d="m116.899993,14.749997a53.74,53.74 0 0 0 -16,0.06a90.78,90.78 0 0 0 -9.79,2.08c-3,0.79 -5.48,1.59 -7.35,2.24l0,0.06a50,50 0 0 1 6.33,20a30.35,30.35 0 0 1 4.12,-2.13c7.72,-3.27 21.8,-5.28 29.55,3c4.34,4.64 5.06,10.74 5.09,14.37c0,1.58 0,8.47 -5.09,13.75c-5.36,5.52 -14.15,7.05 -22.1,3.76l0,0c0,14.24 17.87,15.84 17.87,15.84a40.67,40.67 0 0 1 -4.84,0.25c-7.42,0 -21.37,-1.62 -27.12,-13.12a26.85,26.85 0 0 1 -2.57,-12.16c0,-1.88 0,-17.29 0,-17.29a46.52,46.52 0 0 0 -5.9,-23.51c-8,-13.76 -23.49,-21.91 -43.93,-21.91a66,66 0 0 0 -7.72,0.43l0,16.6a35.35,35.35 0 0 0 -16.17,8.47c-11.9,11.09 -11.37,26.73 -11.25,29.26c0,3.52 0.62,17.33 11.27,28c12.05,12.08 28.57,11.76 32.89,11.29a100.52,100.52 0 0 0 14.6,-2.76c2.61,-0.69 5.06,-1.45 7.35,-2.24l0,-0.06a50,50 0 0 1 -6.33,-20a35.31,35.31 0 0 1 -4.12,2.13a38.37,38.37 0 0 1 -19.79,2.79a17,17 0 0 1 -9.81,-5.75a19.67,19.67 0 0 1 -4.56,-13.89c-0.12,-1.36 -0.63,-8.65 4.56,-14.23s14.14,-7.23 22.11,-3.77c0,-14.24 -17.87,-15.85 -17.87,-15.85a41.14,41.14 0 0 1 4.84,-0.25c9.5,0 29.69,2.66 29.69,25.28l0,17.29a46.48,46.48 0 0 0 5.93,23.53c8,13.77 23.5,21.92 43.94,21.92a66.67,66.67 0 0 0 7.71,-0.42l0,-16.6a35.07,35.07 0 0 0 16.16,-8.46c11.54,-10.8 11.19,-25.8 11.14,-28.33c0.07,-3 0.1,-17.8 -11.14,-29a40.12,40.12 0 0 0 -21.7,-10.67z" class="cls-2"/>
  <path id="svg_20" d="m44.069993,64.579997" class="cls-2"/>
  <path id="svg_21" d="m37.399993,40.249997" class="cls-2"/>
 </g>
</svg>