<?xml version="1.0"?>
<svg xmlns="http://www.w3.org/2000/svg" xmlns:xlink="http://www.w3.org/1999/xlink" version="1.1" id="Layer_1" x="0px" y="0px" viewBox="0 0 497.072 497.072" style="enable-background:new 0 0 497.072 497.072;" xml:space="preserve" width="512px" height="512px" class=""><g><g>
	<path style="fill:#666666;" d="M432.536,65.272v-0.2h-168v16h120.272c-14.816,12.488-24.272,31.152-24.272,52v296   c0,28.672-23.328,52-52,52s-52-23.328-52-52v-12h-120v-152h-16v152h-120v12c0,37.496,30.504,68,68,68h240   c20.832,0,39.512-9.424,52-24.224l136,0.224v-340C496.536,96.928,468.16,67.36,432.536,65.272z M68.536,481.072   c-27.328,0-49.8-21.184-51.848-48h223.968c1.12,19.216,10.256,36.32,24.112,48H68.536z M480.536,457.072H370.504   c3.872-8.544,6.032-18.024,6.032-28v-296c0-28.672,23.328-52,52-52s52,23.328,52,52V457.072z" data-original="#666666" class=""/>
	<path style="fill:#666666;" d="M280.536,305.072c-6.456,0-12.296,2.592-16.616,6.752l-16.408-8.208   c0.6-2.096,1.024-4.264,1.024-6.544c0-13.232-10.768-24-24-24s-24,10.768-24,24c0,4.52,1.328,8.704,3.512,12.312L184.6,338.56   c-2.536-0.904-5.224-1.488-8.064-1.488c-13.232,0-24,10.768-24,24s10.768,24,24,24s24-10.768,24-24   c0-4.52-1.328-8.704-3.512-12.312l19.448-29.176c2.536,0.904,5.224,1.488,8.064,1.488c5.048,0,9.728-1.584,13.592-4.256   l18.696,9.352c-0.112,0.96-0.288,1.912-0.288,2.904c0,13.232,10.768,24,24,24s24-10.768,24-24c0-4.72-1.416-9.096-3.784-12.816   l16.512-27.512c1.08,0.144,2.152,0.328,3.272,0.328c13.232,0,24-10.768,24-24c0-13.232-10.768-24-24-24s-24,10.768-24,24   c0,6.312,2.496,12.016,6.488,16.304l-15.008,25.016C285.648,305.6,283.168,305.072,280.536,305.072z M176.536,369.072   c-4.416,0-8-3.584-8-8s3.584-8,8-8s8,3.584,8,8S180.952,369.072,176.536,369.072z M216.536,297.072c0-4.416,3.584-8,8-8   s8,3.584,8,8s-3.584,8-8,8S216.536,301.488,216.536,297.072z M280.536,337.072c-4.416,0-8-3.584-8-8s3.584-8,8-8s8,3.584,8,8   S284.952,337.072,280.536,337.072z M320.536,257.072c4.416,0,8,3.584,8,8s-3.584,8-8,8s-8-3.584-8-8   S316.12,257.072,320.536,257.072z" data-original="#666666" class=""/>
	<path style="fill:#666666;" d="M40.536,65.072v16h176v-16l28.232,15.056L252.296,66L128.536,0L4.768,66.008l7.528,14.128   L40.536,65.072z M216.528,65.072H40.544l87.992-46.928L216.528,65.072z" data-original="#666666" class=""/>
	<polygon style="fill:#666666;" points="16.536,201.072 16.536,217.072 48.536,217.072 48.536,201.072 40.536,201.072    40.536,113.072 48.536,113.072 48.536,97.072 16.536,97.072 16.536,113.072 24.536,113.072 24.536,201.072  " data-original="#666666" class=""/>
	<polygon style="fill:#666666;" points="80.536,201.072 80.536,217.072 112.536,217.072 112.536,201.072 104.536,201.072    104.536,113.072 112.536,113.072 112.536,97.072 80.536,97.072 80.536,113.072 88.536,113.072 88.536,201.072  " data-original="#666666" class=""/>
	<polygon style="fill:#666666;" points="144.536,201.072 144.536,217.072 176.536,217.072 176.536,201.072 168.536,201.072    168.536,113.072 176.536,113.072 176.536,97.072 144.536,97.072 144.536,113.072 152.536,113.072 152.536,201.072  " data-original="#666666" class=""/>
	<polygon style="fill:#666666;" points="208.536,201.072 208.536,217.072 240.536,217.072 240.536,201.072 232.536,201.072    232.536,113.072 240.536,113.072 240.536,97.072 208.536,97.072 208.536,113.072 216.536,113.072 216.536,201.072  " data-original="#666666" class=""/>
	<rect x="8.536" y="233.072" style="fill:#666666;" width="240" height="16" data-original="#666666" class=""/>
</g><g>
	<rect x="16.536" y="113.072" style="fill:#EE1A2D" width="8" height="88" data-original="#F9BA48" class="active-path" data-old_color="#ee1a2d"/>
	<rect x="40.536" y="113.072" style="fill:#EE1A2D" width="8" height="88" data-original="#F9BA48" class="active-path" data-old_color="#ee1a2d"/>
	<rect x="80.536" y="113.072" style="fill:#EE1A2D" width="8" height="88" data-original="#F9BA48" class="active-path" data-old_color="#ee1a2d"/>
	<rect x="104.536" y="113.072" style="fill:#EE1A2D" width="8" height="88" data-original="#F9BA48" class="active-path" data-old_color="#ee1a2d"/>
	<rect x="144.536" y="113.072" style="fill:#EE1A2D" width="8" height="88" data-original="#F9BA48" class="active-path" data-old_color="#ee1a2d"/>
	<rect x="168.536" y="113.072" style="fill:#EE1A2D" width="8" height="88" data-original="#F9BA48" class="active-path" data-old_color="#ee1a2d"/>
	<rect x="208.536" y="113.072" style="fill:#EE1A2D" width="8" height="88" data-original="#F9BA48" class="active-path" data-old_color="#ee1a2d"/>
	<rect x="232.536" y="113.072" style="fill:#EE1A2D" width="8" height="88" data-original="#F9BA48" class="active-path" data-old_color="#ee1a2d"/>
</g></g> </svg>
