<?xml version="1.0"?>
<svg xmlns="http://www.w3.org/2000/svg" xmlns:xlink="http://www.w3.org/1999/xlink" version="1.1" id="Capa_1" x="0px" y="0px" viewBox="0 0 496 496" style="enable-background:new 0 0 496 496;" xml:space="preserve" width="512px" height="512px" class=""><g><g>
	<circle style="fill:#EE1A2D" cx="248" cy="48" r="40" data-original="#FFA64D" class="active-path" data-old_color="#ee1a2d"/>
	<circle style="fill:#EE1A2D" cx="352" cy="392" r="40" data-original="#FFA64D" class="active-path" data-old_color="#ee1a2d"/>
	<path style="fill:#EE1A2D" d="M456,16L320,96l40,16l-24,56l-96-24l-31.072,49.744l42.36,30.168   c12.6,8.968,15.536,26.456,6.568,39.048l0,0c-8.816,12.376-25.816,15.36-38.352,6.96l48.176,34.408L296,264l96,24l56-144l40,16   L456,16z" data-original="#FFA64D" class="active-path" data-old_color="#ee1a2d"/>
	<polygon style="fill:#EE1A2D" points="65.064,395.752 0,480 0,496 128,496 156.296,460.72  " data-original="#FFA64D" class="active-path" data-old_color="#ee1a2d"/>
</g><g>
	<path style="fill:#666666" d="M272.312,297.808l-24.48-17.44c6.616-2.496,12.344-6.888,16.536-12.776   c5.576-7.832,7.776-17.368,6.176-26.848c-1.592-9.48-6.792-17.776-14.624-23.352l-56.592-40.304   c-9.4-6.688-21.232-9.008-32.448-6.336l-65.08,15.456L0,113.704v196.424l9.248,6.592l9.376,55.784l54.832,39.048l0,0l78.2,55.688   c5.48,3.904,11.896,5.944,18.496,5.944c1.784,0,3.576-0.152,5.368-0.448c8.432-1.416,15.8-6.032,20.76-13   c4.96-6.96,6.912-15.44,5.496-23.864c-0.128-0.752-0.416-1.44-0.592-2.176c8.88-0.888,17.368-5.24,22.936-13.056   c4.96-6.96,6.912-15.44,5.496-23.864c-0.128-0.752-0.408-1.44-0.584-2.176c8.88-0.888,17.368-5.24,22.936-13.056   c5.592-7.848,6.992-17.336,4.896-26.04c8.88-0.88,17.376-5.232,22.952-13.056C290.048,328.064,286.688,308.04,272.312,297.808z    M23.928,307.528L16,301.88V144.744l82.432,58.704l72.144-17.128c6.728-1.608,13.824-0.216,19.472,3.8l56.592,40.304   c4.352,3.104,7.24,7.704,8.128,12.976c0.88,5.264-0.336,10.56-3.432,14.912c-3.104,4.352-7.704,7.24-12.976,8.128   c-5.264,0.872-10.552-0.336-14.904-3.424l-29.336-20.888l0,0l-2.928-2.088l-97.4,22.328l3.576,15.592l46.32-10.616   c-0.072,2.784,0.112,5.568,0.76,8.264c-8.832,0.92-17.256,5.344-22.8,13.12c-5.568,7.816-6.984,17.28-4.92,25.952   c-0.72,0.072-1.44,0.024-2.168,0.152c-8.432,1.416-15.8,6.032-20.76,13c-4.96,6.96-6.912,15.44-5.496,23.864   c0.12,0.728,0.4,1.392,0.568,2.104c-8.872,0.88-17.352,5.304-22.92,13.12c-3.32,4.664-5.168,10.04-5.68,15.6l-26.968-19.208   L23.928,307.528z M183.248,450.456c-2.48,3.48-6.168,5.792-10.376,6.496c-4.224,0.712-8.456-0.264-11.936-2.744l-6.52-4.64l0,0   L82.728,398.52c-3.48-2.48-5.784-6.16-6.496-10.384c-0.712-4.208,0.264-8.448,2.744-11.928c3.12-4.376,8.056-6.712,13.056-6.712   c3.208,0,6.448,0.96,9.256,2.96l78.2,55.688c3.48,2.48,5.792,6.168,6.496,10.376C186.704,442.736,185.728,446.976,183.248,450.456z    M211.096,411.352c-5.12,7.192-15.128,8.872-22.312,3.752l-78.2-55.688c-3.48-2.48-5.792-6.168-6.496-10.376   c-0.712-4.216,0.264-8.456,2.744-11.936s6.168-5.792,10.376-6.496c4.24-0.712,8.456,0.272,11.936,2.744l78.2,55.688   c3.48,2.48,5.792,6.168,6.496,10.376C214.552,403.632,213.576,407.872,211.096,411.352z M238.936,372.256   c-5.12,7.192-15.12,8.872-22.312,3.752l-78.2-55.688c-7.184-5.12-8.864-15.128-3.752-22.32c5.12-7.184,15.136-8.864,22.312-3.752   l78.2,55.688c3.48,2.48,5.792,6.168,6.496,10.384C242.392,364.536,241.416,368.776,238.936,372.256z M266.784,333.16   c-5.112,7.184-15.12,8.864-22.32,3.752l-78.2-55.688c-5.688-4.048-7.976-11.232-6.016-17.68l27.504-6.304l26.4,18.8   c0.008,0,0.008,0.008,0.016,0.008l48.856,34.792C270.216,315.96,271.904,325.968,266.784,333.16z" data-original="#666666" class=""/>
	<rect x="344" y="344" style="fill:#666666" width="16" height="24" data-original="#666666" class=""/>
	
		<rect x="318.551" y="354.535" transform="matrix(-0.7071 0.7071 -0.7071 -0.7071 816.6378 394.8082)" style="fill:#666666" width="16" height="24" data-original="#666666" class=""/>
	<rect x="304" y="384" style="fill:#666666" width="24" height="16" data-original="#666666" class=""/>
	
		<rect x="314.54" y="409.461" transform="matrix(-0.7071 0.7071 -0.7071 -0.7071 852.6283 481.7523)" style="fill:#666666" width="24" height="16" data-original="#666666" class=""/>
	<rect x="344" y="416" style="fill:#666666" width="16" height="24" data-original="#666666" class=""/>
	
		<rect x="369.441" y="405.463" transform="matrix(-0.7071 0.7071 -0.7071 -0.7071 939.5225 445.7637)" style="fill:#666666" width="16" height="24" data-original="#666666" class=""/>
	<rect x="376" y="384" style="fill:#666666" width="24" height="16" data-original="#666666" class=""/>
	
		<rect x="365.452" y="358.54" transform="matrix(-0.7071 0.7071 -0.7071 -0.7071 903.5339 358.8243)" style="fill:#666666" width="24" height="16" data-original="#666666" class=""/>
	<rect x="240" style="fill:#666666" width="16" height="24" data-original="#666666" class=""/>
	
		<rect x="214.543" y="10.548" transform="matrix(-0.7071 0.7071 -0.7071 -0.7071 395.8491 -118.87)" style="fill:#666666" width="16" height="24" data-original="#666666" class=""/>
	<rect x="200" y="40" style="fill:#666666" width="24" height="16" data-original="#666666" class=""/>
	
		<rect x="210.543" y="65.46" transform="matrix(-0.7071 0.7071 -0.7071 -0.7071 431.849 -31.9579)" style="fill:#666666" width="24" height="16" data-original="#666666" class=""/>
	<rect x="240" y="72" style="fill:#666666" width="16" height="24" data-original="#666666" class=""/>
	
		<rect x="265.444" y="61.471" transform="matrix(-0.7071 0.7071 -0.7071 -0.7071 518.7498 -67.9305)" style="fill:#666666" width="16" height="24" data-original="#666666" class=""/>
	<rect x="272" y="40" style="fill:#666666" width="24" height="16" data-original="#666666" class=""/>
	
		<rect x="261.455" y="14.548" transform="matrix(-0.7071 0.7071 -0.7071 -0.7071 482.7611 -154.8699)" style="fill:#666666" width="24" height="16" data-original="#666666" class=""/>
	<rect x="480" y="296" style="fill:#666666" width="16" height="16" data-original="#666666" class=""/>
	<rect x="448" y="296" style="fill:#666666" width="16" height="16" data-original="#666666" class=""/>
	<rect x="464" y="280" style="fill:#666666" width="16" height="16" data-original="#666666" class=""/>
	<rect x="464" y="312" style="fill:#666666" width="16" height="16" data-original="#666666" class=""/>
	<rect x="160" y="120" style="fill:#666666" width="16" height="16" data-original="#666666" class=""/>
	<rect x="128" y="120" style="fill:#666666" width="16" height="16" data-original="#666666" class=""/>
	<rect x="144" y="104" style="fill:#666666" width="16" height="16" data-original="#666666" class=""/>
	<rect x="144" y="136" style="fill:#666666" width="16" height="16" data-original="#666666" class=""/>
</g></g> </svg>
