<?xml version="1.0"?>
<svg xmlns="http://www.w3.org/2000/svg" xmlns:xlink="http://www.w3.org/1999/xlink" version="1.1" id="Capa_1" x="0px" y="0px" viewBox="0 0 496 496" style="enable-background:new 0 0 496 496;" xml:space="preserve" width="512px" height="512px" class=""><g><path style="fill:#EE1A2D" d="M304,64c0-31.248-25.584-56.512-56.952-55.992c-29.232,0.488-53.96,24.712-55.016,53.928  c-0.512,14.28,4.328,27.392,12.672,37.528C216.512,113.808,224,131.192,224,149.768V168h48v-15.544  c0-19.816,7.832-38.392,20.08-53.976C299.544,88.992,304,77.024,304,64z" data-original="#FFCB57" class="" data-old_color="#ee1a2d"/><g>
	<path style="fill:#555555" d="M0,408c0,22.056,17.944,40,40,40h96v32h-32v16h288v-16h-32v-32h96c22.056,0,40-17.944,40-40v-24H0   V408z M344,480H152v-32h192V480z M16,400h464v8c0,13.232-10.768,24-24,24H40c-13.232,0-24-10.768-24-24V400z" data-original="#3F3A34" class="active-path" data-old_color="#3F3A34"/>
	<path style="fill:#555555" d="M16,120c0-13.232,10.768-24,24-24h128V80H40C17.944,80,0,97.944,0,120v248h16V120z" data-original="#3F3A34" class="active-path" data-old_color="#3F3A34"/>
	<path style="fill:#555555" d="M456,80H328v16h128c13.232,0,24,10.768,24,24v248h16V120C496,97.944,478.056,80,456,80z" data-original="#3F3A34" class="active-path" data-old_color="#3F3A34"/>
	<polygon style="fill:#555555" points="400,352 96,352 96,128 168,128 168,112 80,112 80,368 416,368 416,112 328,112 328,128    400,128  " data-original="#3F3A34" class="active-path" data-old_color="#3F3A34"/>
	<path style="fill:#555555" d="M216,149.768V176h64v-23.536c0-16.8,6.352-33.752,18.368-49.032C307.288,92.088,312,78.456,312,64   c0-17.296-6.792-33.504-19.128-45.632C280.808,6.496,264.912,0,248.008,0c-0.36,0-0.728,0-1.096,0.008   c-33.472,0.552-61.672,28.208-62.864,61.64c-0.568,15.632,4.576,30.864,14.488,42.904C209.96,118.432,216,134.064,216,149.768z    M264,160h-32v-8h32.024c0,0.152-0.024,0.304-0.024,0.464V160z M247.176,16.008c13.072-0.28,25.232,4.672,34.48,13.768   C290.904,38.872,296,51.024,296,64c0,10.832-3.528,21.048-10.208,29.536c-10.416,13.24-17.192,27.68-20.12,42.464H256V96h-16v40   h-9.256c-2.608-14.64-9.32-28.824-19.856-41.624c-7.424-9.016-11.28-20.432-10.856-32.16   C200.928,37.16,222.08,16.424,247.176,16.008z" data-original="#3F3A34" class="active-path" data-old_color="#3F3A34"/>
	<path style="fill:#555555" d="M248,192c-4.416,0-8-3.592-8-8h-16c0,13.232,10.768,24,24,24s24-10.768,24-24h-16   C256,188.408,252.416,192,248,192z" data-original="#3F3A34" class="active-path" data-old_color="#3F3A34"/>
	<rect x="240" y="64" style="fill:#555555" width="16" height="16" data-original="#3F3A34" class="active-path" data-old_color="#3F3A34"/>
	<path style="fill:#555555" d="M248,288c35.288,0,64-28.712,64-64c0-17.328-6.816-33.56-19.184-45.688l-11.2,11.424   C290.888,198.832,296,211,296,224c0,26.472-21.528,48-48,48s-48-21.528-48-48c0-12.64,4.864-24.568,13.712-33.584l-11.424-11.2   C190.496,191.24,184,207.152,184,224C184,259.288,212.712,288,248,288z" data-original="#3F3A34" class="active-path" data-old_color="#3F3A34"/>
</g><g>
	<path style="fill:#EE1A2D" d="M278.248,336h-60.496l-5.776-23.096c-0.456-0.184-0.912-0.376-1.368-0.568l-20.424,12.248   l-38.352-38.352l11.312-11.312l29.52,29.52l16.976-10.184l3.872,1.848c2.56,1.224,5.168,2.312,7.856,3.256l4.064,1.432L230.248,320   h35.504l4.808-19.208l4.064-1.432c2.688-0.944,5.296-2.032,7.856-3.256l3.872-1.848l16.976,10.184l25.112-25.104l-10.184-16.984   l1.856-3.88c1.216-2.544,2.304-5.168,3.256-7.856l1.432-4.048l19.2-4.8v-35.504l-19.2-4.8l-1.432-4.048   c-0.952-2.688-2.04-5.312-3.256-7.856l14.424-6.912c0.84,1.752,1.632,3.544,2.368,5.352L360,193.752v60.496l-23.104,5.776   c-0.184,0.464-0.376,0.912-0.56,1.368l12.24,20.424l-42.768,42.768l-20.424-12.248c-0.456,0.192-0.912,0.384-1.368,0.568   L278.248,336z" data-original="#E56565" class="" data-old_color="#ee1a2d"/>
	<path style="fill:#EE1A2D" d="M161.472,265.376c-0.84-1.752-1.632-3.544-2.368-5.352L136,254.248v-60.496l23.104-5.776   c0.184-0.464,0.376-0.912,0.56-1.368l-12.24-20.424l38.352-38.352l11.312,11.312l-29.52,29.52l10.184,16.984l-1.856,3.88   c-1.216,2.544-2.304,5.168-3.256,7.856l-1.44,4.064l-19.2,4.8v35.504l19.2,4.8l1.432,4.048c0.952,2.688,2.04,5.312,3.256,7.856   L161.472,265.376z" data-original="#E56565" class="" data-old_color="#ee1a2d"/>
	
		<rect x="313.523" y="126.48" transform="matrix(-0.7071 0.7071 -0.7071 -0.7071 655.2758 29.5269)" style="fill:#EE1A2D" width="16" height="47.992" data-original="#E56565" class="" data-old_color="#ee1a2d"/>
</g></g> </svg>
