<?xml version="1.0"?>
<svg xmlns="http://www.w3.org/2000/svg" xmlns:xlink="http://www.w3.org/1999/xlink" version="1.1" id="Layer_1" x="0px" y="0px" viewBox="0 0 495.848 495.848" style="enable-background:new 0 0 495.848 495.848;" xml:space="preserve" width="512px" height="512px" class=""><g><g>
	<path style="fill:#333333;" d="M457.796,183.92c0-100.128-81.432-182.624-181.52-183.904C275.492,0.008,274.716,0,273.948,0   C187.532,0,111.98,61.56,93.796,147.184c-4.488,21.152-5.048,42.944-1.68,64.832l-54.08,96.728l59.784,17.272l0.128,97.832h79.992   v72h16v-88h-80.008l-0.128-93.864L61.836,298.96l46.984-84.024l-0.472-2.784c-3.528-20.832-3.168-41.576,1.104-61.64   C126.22,71.56,196.092,15.216,276.068,16.016c91.384,1.168,165.728,76.496,165.728,167.912l0.016,29.2   c0.048,64.088-31.512,124.088-84.416,160.504l-3.464,2.384v119.832h16V384.376c55.16-39.616,87.928-103.312,87.88-171.264   L457.796,183.92z" data-original="#333333" class=""/>
	<polygon style="fill:#333333;" points="325.932,56.992 281.812,30.52 237.692,56.992 245.932,70.712 273.812,53.976    273.812,255.848 289.812,255.848 289.812,53.976 317.692,70.712  " data-original="#333333" class=""/>
	<rect x="273.812" y="271.848" style="fill:#333333;" width="16" height="16" data-original="#333333" class=""/>
	<rect x="273.812" y="303.848" style="fill:#333333;" width="16" height="16" data-original="#333333" class=""/>
	<rect x="273.812" y="335.848" style="fill:#333333;" width="16" height="16" data-original="#333333" class=""/>
	<polygon style="fill:#333333;" points="209.812,143.848 193.812,143.848 193.812,167.848 169.812,167.848 169.812,183.848    193.812,183.848 193.812,207.848 209.812,207.848 209.812,183.848 233.812,183.848 233.812,167.848 209.812,167.848  " data-original="#333333" class=""/>
	<polygon style="fill:#333333;" points="169.812,287.848 169.812,263.848 193.812,263.848 193.812,247.848 169.812,247.848    169.812,223.848 153.812,223.848 153.812,247.848 129.812,247.848 129.812,263.848 153.812,263.848 153.812,287.848  " data-original="#333333" class=""/>
	<polygon style="fill:#333333;" points="361.812,151.848 361.812,127.848 385.812,127.848 385.812,111.848 361.812,111.848    361.812,87.848 345.812,87.848 345.812,111.848 321.812,111.848 321.812,127.848 345.812,127.848 345.812,151.848  " data-original="#333333" class=""/>
	<polygon style="fill:#333333;" points="377.812,255.848 393.812,255.848 393.812,231.848 417.812,231.848 417.812,215.848    393.812,215.848 393.812,191.848 377.812,191.848 377.812,215.848 353.812,215.848 353.812,231.848 377.812,231.848  " data-original="#333333" class=""/>
</g><g>
	<rect x="297.812" y="80" style="fill:#EE1A2D" width="16" height="16" data-original="#F9BA48" class="active-path" data-old_color="#ee1a2d"/>
	<rect x="297.812" y="112" style="fill:#EE1A2D" width="16" height="16" data-original="#F9BA48" class="active-path" data-old_color="#ee1a2d"/>
	<rect x="297.812" y="144" style="fill:#EE1A2D" width="16" height="16" data-original="#F9BA48" class="active-path" data-old_color="#ee1a2d"/>
	<rect x="297.812" y="176" style="fill:#EE1A2D" width="16" height="16" data-original="#F9BA48" class="active-path" data-old_color="#ee1a2d"/>
	<rect x="297.812" y="208" style="fill:#EE1A2D" width="16" height="16" data-original="#F9BA48" class="active-path" data-old_color="#ee1a2d"/>
	<rect x="297.812" y="240" style="fill:#EE1A2D" width="16" height="16" data-original="#F9BA48" class="active-path" data-old_color="#ee1a2d"/>
	<rect x="297.812" y="272" style="fill:#EE1A2D" width="16" height="16" data-original="#F9BA48" class="active-path" data-old_color="#ee1a2d"/>
	<rect x="297.812" y="304" style="fill:#EE1A2D" width="16" height="16" data-original="#F9BA48" class="active-path" data-old_color="#ee1a2d"/>
	<rect x="297.812" y="336" style="fill:#EE1A2D" width="16" height="16" data-original="#F9BA48" class="active-path" data-old_color="#ee1a2d"/>
	<rect x="297.812" y="368" style="fill:#EE1A2D" width="16" height="16" data-original="#F9BA48" class="active-path" data-old_color="#ee1a2d"/>
	<rect x="249.812" y="96" style="fill:#EE1A2D" width="16" height="16" data-original="#F9BA48" class="active-path" data-old_color="#ee1a2d"/>
	<rect x="249.812" y="128" style="fill:#EE1A2D" width="16" height="16" data-original="#F9BA48" class="active-path" data-old_color="#ee1a2d"/>
	<rect x="249.812" y="160" style="fill:#EE1A2D" width="16" height="16" data-original="#F9BA48" class="active-path" data-old_color="#ee1a2d"/>
	<rect x="249.812" y="192" style="fill:#EE1A2D" width="16" height="16" data-original="#F9BA48" class="active-path" data-old_color="#ee1a2d"/>
	<rect x="249.812" y="224" style="fill:#EE1A2D" width="16" height="16" data-original="#F9BA48" class="active-path" data-old_color="#ee1a2d"/>
	<rect x="249.812" y="256" style="fill:#EE1A2D" width="16" height="16" data-original="#F9BA48" class="active-path" data-old_color="#ee1a2d"/>
	<rect x="249.812" y="288" style="fill:#EE1A2D" width="16" height="16" data-original="#F9BA48" class="active-path" data-old_color="#ee1a2d"/>
	<rect x="249.812" y="320" style="fill:#EE1A2D" width="16" height="16" data-original="#F9BA48" class="active-path" data-old_color="#ee1a2d"/>
	<rect x="249.812" y="352" style="fill:#EE1A2D" width="16" height="16" data-original="#F9BA48" class="active-path" data-old_color="#ee1a2d"/>
</g></g> </svg>
