<?xml version="1.0"?>
<svg xmlns="http://www.w3.org/2000/svg" xmlns:xlink="http://www.w3.org/1999/xlink" version="1.1" id="Capa_1" x="0px" y="0px" viewBox="0 0 496 496" style="enable-background:new 0 0 496 496;" xml:space="preserve" width="512px" height="512px" class=""><g><g>
	<rect x="376" y="176" style="fill:#EE1A2D" width="88" height="48" data-original="#FFA64D" class="active-path" data-old_color="#ee1a2d"/>
	<path style="fill:#EE1A2D" d="M352,272h-88v-88l0,0C312.6,184,352,223.4,352,272L352,272z" data-original="#FFA64D" class="active-path" data-old_color="#ee1a2d"/>
	<rect x="376" y="320" style="fill:#EE1A2D" width="88" height="48" data-original="#FFA64D" class="active-path" data-old_color="#ee1a2d"/>
	<rect x="64" y="320" style="fill:#EE1A2D" width="88" height="48" data-original="#FFA64D" class="active-path" data-old_color="#ee1a2d"/>
</g><g>
	<rect x="104" y="448" style="fill:#333333" width="80" height="16" data-original="#333333" class=""/>
	<path style="fill:#333333" d="M496,80H288V40c0-22.056-17.944-40-40-40H40C17.944,0,0,17.944,0,40v416c0,22.056,17.944,40,40,40   h208c22.056,0,40-17.944,40-40v-56h208V80z M480,144H48V96h432V144z M40,16h208c13.232,0,24,10.768,24,24v8H16v-8   C16,26.768,26.768,16,40,16z M248,480H40c-13.232,0-24-10.768-24-24v-24h256v24C272,469.232,261.232,480,248,480z M272,416H16V64   h256v16H32v320h240V416z M48,384V160h432v224H48z" data-original="#333333" class=""/>
	<rect x="64" y="112" style="fill:#333333" width="16" height="16" data-original="#333333" class=""/>
	<rect x="96" y="112" style="fill:#333333" width="16" height="16" data-original="#333333" class=""/>
	<rect x="128" y="112" style="fill:#333333" width="16" height="16" data-original="#333333" class=""/>
	<path style="fill:#333333" d="M322.008,195.688C305.872,183.392,285.808,176,264,176c-52.936,0-96,43.064-96,96   c0,14.208,3.184,27.656,8.744,39.8l-18.44,8.2H64v16h97.696l22.872-10.16C201.848,351.264,231,368,264,368   s62.152-16.736,79.432-42.16L366.304,336H464v-16h-94.304l-18.44-8.2c5.56-12.144,8.744-25.592,8.744-39.8   c0-24.856-9.576-47.456-25.12-64.52L369.696,192H464v-16h-97.696L322.008,195.688z M328.456,319.184   C313.888,339.032,290.456,352,264,352s-49.888-12.968-64.456-32.816l35.712-15.872l-6.496-14.624l-37.392,16.624   C186.68,295.152,184,283.896,184,272c0-41.408,31.632-75.568,72-79.592V280h87.592c-0.896,8.96-3.336,17.456-6.952,25.312   l-37.392-16.624l-6.496,14.624L328.456,319.184z M343.592,264H272v-71.592c11.912,1.192,23.016,5.072,32.816,10.92l-12.072,5.36   l6.496,14.624l20.104-8.936C332.704,227.208,341.656,244.568,343.592,264z" data-original="#333333" class=""/>
	<rect x="448" y="208" style="fill:#333333" width="16" height="16" data-original="#333333" class=""/>
	<rect x="376" y="208" style="fill:#333333" width="56" height="16" data-original="#333333" class=""/>
	<rect x="448" y="352" style="fill:#333333" width="16" height="16" data-original="#333333" class=""/>
	<rect x="376" y="352" style="fill:#333333" width="56" height="16" data-original="#333333" class=""/>
	<rect x="64" y="352" style="fill:#333333" width="16" height="16" data-original="#333333" class=""/>
	<rect x="96" y="352" style="fill:#333333" width="56" height="16" data-original="#333333" class=""/>
</g></g> </svg>
