<?xml version="1.0"?>
<svg xmlns="http://www.w3.org/2000/svg" xmlns:xlink="http://www.w3.org/1999/xlink" version="1.1" id="Capa_1" x="0px" y="0px" viewBox="0 0 496 496" style="enable-background:new 0 0 496 496;" xml:space="preserve" width="512px" height="512px" class=""><g><g>
	<rect x="352" y="384" style="fill:#EE1A2D" width="96" height="72" data-original="#F0BC5E" class="active-path" data-old_color="#ee1a2d"/>
	<rect x="48" y="384" style="fill:#EE1A2D" width="96" height="72" data-original="#F0BC5E" class="active-path" data-old_color="#ee1a2d"/>
</g><path d="M248,64c-30.872,0-56,25.128-56,56v32h16v-32c0-22.056,17.944-40,40-40s40,17.944,40,40v32h16v-32  C304,89.128,278.872,64,248,64z" data-original="#000000" class="" style="fill:#000000"/><path d="M431.592,104.408C427.784,68.264,397.136,40,360,40c-13.304,0-26.368,3.792-37.632,10.696C310.64,21.056,281.76,0,248,0  c-33.776,0-62.664,21.08-74.384,50.744C162.328,43.784,149.328,40,136,40c-37.6,0-68.512,28.976-71.688,65.776  C32.136,112.96,8,141.688,8,176c0,39.704,32.296,72,72,72h104v-16H80c-30.872,0-56-25.128-56-56s25.128-56,56-56  c7.272,0,14.336,1.368,20.992,4.072l6.016-14.832c-8.384-3.4-17.256-5.136-26.376-5.208C84.528,76.928,107.84,56,136,56  c11.928,0,23.536,3.896,33.152,11C168.456,71.24,168,75.568,168,80h16c0-35.288,28.712-64,64-64s64,28.712,64,64h16  c0-4.424-0.456-8.728-1.144-12.96C336.504,59.896,347.88,56,360,56c30.872,0,56,25.128,56,56c0,12.872-4.248,24.976-12.28,34.992  l12.488,10.016c8.392-10.472,13.624-23.184,15.224-36.456C458.792,124.2,480,147.648,480,176c0,30.872-25.128,56-56,56H312v16h112  c39.704,0,72-32.296,72-72C496,138.864,467.736,108.216,431.592,104.408z" data-original="#000000" class="" style="fill:#000000"/><path d="M400,112c0-22.056-17.944-40-40-40v16c13.232,0,24,10.768,24,24H400z" data-original="#000000" class="" style="fill:#000000"/><path d="M480,448v-72c0-13.232-10.768-24-24-24h-48v-24c0-13.232-10.768-24-24-24h-96c-4.416,0-8-3.584-8-8v-32h-16v32  c0,13.232,10.768,24,24,24h96c4.416,0,8,3.584,8,8v24h-48c-13.232,0-24,10.768-24,24v72h-16v24c0,13.232,10.768,24,24,24h144  c13.232,0,24-10.768,24-24v-24H480z M480,472c0,4.416-3.584,8-8,8H328c-4.416,0-8-3.584-8-8v-8h112v-16h-96v-72c0-4.416,3.584-8,8-8  h112c4.416,0,8,3.584,8,8v72h-16v16h32V472z" data-original="#000000" class="" style="fill:#000000"/><path d="M216,264v32c0,4.416-3.584,8-8,8h-96c-13.232,0-24,10.768-24,24v24H40c-13.232,0-24,10.768-24,24v72H0v24  c0,13.232,10.768,24,24,24h144c13.232,0,24-10.768,24-24v-24h-16v-72c0-13.232-10.768-24-24-24h-48v-24c0-4.416,3.584-8,8-8h96  c13.232,0,24-10.768,24-24v-32H216z M152,368c4.416,0,8,3.584,8,8v72h-16v16h32v8c0,4.416-3.584,8-8,8H24c-4.416,0-8-3.584-8-8v-8  h112v-16H32v-72c0-4.416,3.584-8,8-8H152z" data-original="#000000" class="" style="fill:#000000"/><path style="fill:#EE1A2D" d="M296,272h-96c-13.232,0-24-10.768-24-24v-80c0-13.232,10.768-24,24-24h96c13.232,0,24,10.768,24,24  v80C320,261.232,309.232,272,296,272z" data-original="#F0BC5E" class="active-path" data-old_color="#ee1a2d"/><path d="M80,216c-22.056,0-40-17.944-40-40s17.944-40,40-40v16c-13.232,0-24,10.768-24,24s10.768,24,24,24V216z" data-original="#000000" class="" style="fill:#000000"/><path d="M272,200c0-13.232-10.768-24-24-24s-24,10.768-24,24c0,10.416,6.712,19.216,16,22.528V240h16v-17.472  C265.288,219.216,272,210.416,272,200z M248,208c-4.416,0-8-3.584-8-8s3.584-8,8-8c4.416,0,8,3.584,8,8S252.416,208,248,208z" data-original="#000000" class="" style="fill:#000000"/></g> </svg>
