<?xml version="1.0"?>
<svg xmlns="http://www.w3.org/2000/svg" xmlns:xlink="http://www.w3.org/1999/xlink" version="1.1" id="Layer_1" x="0px" y="0px" viewBox="0 0 498.544 498.544" style="enable-background:new 0 0 498.544 498.544;" xml:space="preserve" width="512px" height="512px" class=""><g><g>
	<path style="fill:#666666;" d="M109.48,409.16l324.776-125.32l64.288-19.4l-262.432-64.008c-0.304-17.224-14.36-31.16-31.664-31.16   h-8.28v-40h56c13.232,0,24-10.768,24-24s-10.768-24-24-24h-96c-22.056,0-40,17.944-40,40v56h-88.76l8.76,96v22.464L0,386.16   l52.168-3.728v36.28L109.48,409.16z M106.04,393.512l-37.872,6.312v-18.536l56.568-4.04l106.912-32.264L106.04,393.512z    M188.76,262.432l-24.592,0.48v-45.64h24v40C188.168,259.048,188.392,260.768,188.76,262.432z M164.168,278.92l15.56-0.304   l-15.56,1.224V278.92z M197.808,277.2l-0.016-0.824c0.32,0.24,0.584,0.536,0.92,0.752L197.808,277.2z M236.168,257.272V216.92   l169.184,41.264l-169.616,3.328C235.984,260.128,236.168,258.72,236.168,257.272z M156.168,97.272h96c4.416,0,8,3.584,8,8   s-3.584,8-8,8h-96v16h24v56h24.28c8.664,0,15.72,7.056,15.72,15.72v56.28c0,4.416-3.584,8-8,8s-8-3.584-8-8v-56h-56v79.816   l-16,1.256V121.272C132.168,108.04,142.936,97.272,156.168,97.272z M52.152,288.624l-0.008-7.504l64.024-1.256v3.736   L52.152,288.624z M116.168,193.272v70.584l-64.704,1.272l-6.536-71.856H116.168z M49.752,304.856l350.864-27.52L122.704,361.36   l-98.368,7.024L49.752,304.856z" data-original="#666666"/>
	<path style="fill:#666666;" d="M196.168,41.272c0-22.056-17.944-40-40-40s-40,17.944-40,40s17.944,40,40,40   S196.168,63.328,196.168,41.272z M156.168,65.272c-13.232,0-24-10.768-24-24s10.768-24,24-24s24,10.768,24,24   S169.4,65.272,156.168,65.272z" data-original="#666666"/>
	<rect x="340.168" y="361.272" style="fill:#666666;" width="152" height="16" data-original="#666666"/>
	<rect x="300.168" y="361.272" style="fill:#666666;" width="24" height="16" data-original="#666666"/>
	<rect x="252.168" y="401.272" style="fill:#666666;" width="208" height="16" data-original="#666666"/>
	<rect x="212.168" y="401.272" style="fill:#666666;" width="24" height="16" data-original="#666666"/>
	<rect x="220.168" y="441.272" style="fill:#666666;" width="208" height="16" data-original="#666666"/>
	<rect x="124.168" y="441.272" style="fill:#666666;" width="80" height="16" data-original="#666666"/>
	<rect x="132.168" y="481.272" style="fill:#666666;" width="264" height="16" data-original="#666666"/>
	<rect x="92.168" y="481.272" style="fill:#666666;" width="24" height="16" data-original="#666666"/>
</g><g>
	<rect x="284.168" y="345.272" style="fill:#EE1A2D" width="192" height="16" data-original="#F9BA48" class="active-path" data-old_color="#ee1a2d"/>
	<rect x="196.168" y="385.272" style="fill:#EE1A2D" width="248" height="16" data-original="#F9BA48" class="active-path" data-old_color="#ee1a2d"/>
	<rect x="108.168" y="425.272" style="fill:#EE1A2D" width="304" height="16" data-original="#F9BA48" class="active-path" data-old_color="#ee1a2d"/>
	<rect x="76.168" y="465.272" style="fill:#EE1A2D" width="304" height="16" data-original="#F9BA48" class="active-path" data-old_color="#ee1a2d"/>
</g></g> </svg>
