<?xml version="1.0"?>
<svg xmlns="http://www.w3.org/2000/svg" xmlns:xlink="http://www.w3.org/1999/xlink" version="1.1" id="Layer_1" x="0px" y="0px" viewBox="0 0 496 496" style="enable-background:new 0 0 496 496;" xml:space="preserve" width="512px" height="512px" class=""><g><g>
	<polygon style="fill:#EE1A2D" points="128,101.064 108.224,112 112,88.848 96,72.448 118.112,69.064 128,48 137.888,69.064    160,72.448 144,88.848 147.776,112  " data-original="#F9BA48" class="active-path" data-old_color="#ee1a2d"/>
	<polygon style="fill:#EE1A2D" points="248,101.064 228.224,112 232,88.848 216,72.448 238.112,69.064 248,48 257.888,69.064    280,72.448 264,88.848 267.776,112  " data-original="#F9BA48" class="active-path" data-old_color="#ee1a2d"/>
	<polygon style="fill:#EE1A2D" points="360,101.064 340.224,112 344,88.848 328,72.448 350.112,69.064 360,48 369.888,69.064    392,72.448 376,88.848 379.776,112  " data-original="#F9BA48" class="active-path" data-old_color="#ee1a2d"/>
	<polygon style="fill:#EE1A2D" points="184,213.064 164.224,224 168,200.848 152,184.448 174.112,181.064 184,160 193.888,181.064    216,184.448 200,200.848 203.776,224  " data-original="#F9BA48" class="active-path" data-old_color="#ee1a2d"/>
	<polygon style="fill:#EE1A2D" points="304,213.064 284.224,224 288,200.848 272,184.448 294.112,181.064 304,160 313.888,181.064    336,184.448 320,200.848 323.776,224  " data-original="#F9BA48" class="active-path" data-old_color="#ee1a2d"/>
</g><g>
	<path style="fill:#666666" d="M360,0H136C61.008,0,0,61.008,0,136s61.008,136,136,136h16v29.216   c0,18.24-14.152,33.072-32.032,34.504C119.816,322.616,109.136,312,96,312H24c-13.232,0-24,10.768-24,24v136   c0,13.232,10.768,24,24,24h72c13.232,0,24-10.768,24-24h9.576c6.352,0,12.24,3.16,15.768,8.44   c6.496,9.736,17.368,15.56,29.08,15.56h117.872C316.4,496,336,476.4,336,452.296v-88.592C336,339.6,316.4,320,292.296,320h-1.44   l58.664-48H360c74.992,0,136-61.008,136-136S434.992,0,360,0z M96,480H24c-4.416,0-8-3.584-8-8V336c0-4.416,3.584-8,8-8h72   c4.416,0,8,3.584,8,8v136C104,476.416,100.416,480,96,480z M320,363.704v88.592C320,467.568,307.568,480,292.296,480H174.424   c-6.352,0-12.24-3.16-15.768-8.44c-6.496-9.736-17.368-15.56-29.08-15.56H120V351.92c26.712-1.448,48-23.632,48-50.704V272   c0-11.032,8.968-20,20-20s20,8.968,20,20v38.352C208,324.496,219.504,336,233.648,336h58.648C307.568,336,320,348.432,320,363.704z    M233.648,320c-5.32,0-9.648-4.328-9.648-9.648V272h56v48H233.648z M360,256h-16.192L296,295.12V256h-75.92   c-5.912-11.8-18-20-32.08-20s-26.168,8.2-32.08,20H136c-66.168,0-120-53.832-120-120S69.832,16,136,16h224   c66.168,0,120,53.832,120,120S426.168,256,360,256z" data-original="#666666" class=""/>
	<rect x="32" y="448" style="fill:#666666" width="56" height="16" data-original="#666666" class=""/>
</g></g> </svg>
