<?xml version="1.0"?>
<svg xmlns="http://www.w3.org/2000/svg" height="512px" viewBox="-29 0 481 481.6581" width="512px" class=""><g><path d="m412.628906 178.65625c.308594 5.8125-.679687 11.621094-2.898437 17-2.027344 4.941406-5.019531 9.429688-8.800781 13.203125l-191 191c-15.640626 15.597656-40.957032 15.597656-56.601563 0l-129.097656-129.101563-1.402344-1.398437c-15.597656-15.644531-15.597656-40.960937 0-56.601563l191-191c7.980469-7.960937 18.9375-12.207031 30.199219-11.699218l124.5 6.097656c20.558594 1.007812 36.996094 17.445312 38 38zm-84.800781-38.898438c12.371094-12.371093 12.371094-32.429687 0-44.800781-12.371094-12.371093-32.425781-12.371093-44.796875 0-12.371094 12.371094-12.371094 32.429688-.003906 44.800781 5.9375 5.953126 13.996094 9.300782 22.402344 9.300782s16.464843-3.347656 22.398437-9.300782zm-130.5 68c7.980469-7.980468 7.980469-20.917968 0-28.898437s-20.917969-7.980469-28.898437 0c-7.980469 7.980469-7.980469 20.917969 0 28.898437 3.828124 3.839844 9.027343 6 14.449218 6s10.621094-2.160156 14.449219-6zm0 93c7.980469-7.980468 7.980469-20.917968 0-28.898437s-20.917969-7.980469-28.898437 0c-7.980469 7.980469-7.980469 20.917969 0 28.898437 3.828124 3.839844 9.027343 6 14.449218 6s10.621094-2.160156 14.449219-6zm0 0" fill="#00efd1" data-original="#00EFD1" class="active-path" style="fill:#ED0808" data-old_color="#E51010"/><path d="m411.929688 238.757812c.589843 11.277344-3.667969 22.265626-11.699219 30.199219l-191 191c-15.644531 15.601563-40.960938 15.601563-56.601563 0l-130.5-130.597656c-15.601562-15.605469-15.601562-40.898437 0-56.5l2.101563-2.101563 129.199219 129.101563c15.640624 15.597656 40.957031 15.597656 56.597656 0l191-191c3.78125-3.773437 6.773437-8.261719 8.800781-13.203125h.101563zm0 0" fill="#00acea" data-original="#00ACEA" class="" style="fill:#FFFFFF" data-old_color="#FFF6F7"/><path d="m327.828125 94.859375c12.371094 12.371094 12.371094 32.425781 0 44.796875s-32.425781 12.371094-44.796875 0-12.371094-32.425781-.003906-44.796875c5.9375-5.957031 13.996094-9.300781 22.402344-9.300781s16.464843 3.34375 22.398437 9.300781zm0 0" fill="#d4e1f4" data-original="#D4E1F4" class="" style="fill:#FFF6F7" data-old_color="#824242"/><path d="m203.328125 193.359375c0 11.265625-9.132813 20.398437-20.398437 20.398437-11.265626 0-20.402344-9.132812-20.402344-20.398437 0-11.269531 9.136718-20.402344 20.402344-20.402344 11.265624 0 20.398437 9.132813 20.398437 20.402344zm0 0" fill="#00efd1" data-original="#00EFD1" class="active-path" style="fill:#ED0808" data-old_color="#E51010"/><path d="m203.328125 286.257812c0 11.265626-9.132813 20.398438-20.398437 20.398438-11.265626 0-20.402344-9.132812-20.402344-20.398438 0-11.265624 9.136718-20.398437 20.402344-20.398437 11.265624 0 20.398437 9.132813 20.398437 20.398437zm0 0" fill="#00efd1" data-original="#00EFD1" class="active-path" style="fill:#ED0808" data-old_color="#E51010"/><g fill="#083863"><path d="m422.628906 178.15625-6.101562-124.5c-1.210938-25.710938-21.785156-46.285156-47.5-47.5l-124.5-6.0976562c-14.09375-.6796878-27.820313 4.6210942-37.796875 14.5976562l-191 191c-17.417969 17.453125-19.539063 44.988281-5 64.902344-15.332031 19.910156-13.535157 48.097656 4.199219 65.898437l130.597656 130.601563c19.585937 19.464844 51.214844 19.464844 70.800781 0l191-191c9.992187-9.96875 15.296875-23.703125 14.601563-37.800782l-2-41.199218c2.03125-6.085938 2.949218-12.488282 2.699218-18.902344zm-392.699218 41.703125 191-191c5.628906-5.617187 13.25-8.777344 21.199218-8.800781h1.5l124.5 6.097656c15.429688.730469 27.773438 13.074219 28.5 28.5l6.101563 124.5c.222656 4.347656-.53125 8.683594-2.203125 12.703125-1.480469 3.722656-3.730469 7.097656-6.597656 9.898437l-191 191c-11.714844 11.699219-30.6875 11.699219-42.402344 0l-129.199219-129.101562-1.398437-1.398438c-11.699219-11.710937-11.699219-30.6875 0-42.398437zm363.199218 42-191 191c-5.617187 5.632813-13.246094 8.796875-21.199218 8.796875-7.957032 0-15.582032-3.164062-21.199219-8.796875l-130.5-130.5c-9.808594-9.8125-11.628907-25.058594-4.402344-36.902344l121.5 121.5c19.585937 19.46875 51.214844 19.46875 70.800781 0l184-184.097656.800782 16.398437c.398437 8.441407-2.796876 16.652344-8.800782 22.601563zm0 0" data-original="#333333" class="" style="fill:#333333" data-old_color="#555555"/><path d="m305.429688 158.957031c19.867187-.019531 36.953124-14.070312 40.8125-33.558593 3.859374-19.492188-6.582032-38.992188-24.941407-46.585938-18.359375-7.589844-39.523437-1.160156-50.558593 15.359375-11.03125 16.523437-8.859376 38.539063 5.1875 52.585937 7.820312 7.824219 18.4375 12.214844 29.5 12.199219zm-15.402344-57c4.039062-4.09375 9.550781-6.398437 15.300781-6.398437 5.777344.015625 11.3125 2.316406 15.402344 6.398437 8.476562 8.476563 8.476562 22.222657 0 30.699219-8.480469 8.480469-22.222657 8.480469-30.703125 0-8.476563-8.476562-8.476563-22.222656 0-30.699219zm0 0" data-original="#333333" class="" style="fill:#333333" data-old_color="#555555"/><path d="m182.929688 223.757812c12.296874.003907 23.386718-7.402343 28.09375-18.765624 4.707031-11.363282 2.101562-24.441407-6.59375-33.132813-5.671876-5.746094-13.425782-8.957031-21.5-8.902344-16.789063 0-30.402344 13.613281-30.402344 30.402344s13.613281 30.398437 30.402344 30.398437zm-7.402344-37.800781c1.953125-1.980469 4.621094-3.097656 7.402344-3.097656s5.449218 1.117187 7.398437 3.097656c2.992187 2.96875 3.886719 7.453125 2.261719 11.34375-1.625 3.886719-5.445313 6.402344-9.660156 6.355469-2.761719-.007812-5.414063-1.082031-7.402344-3-1.964844-1.9375-3.074219-4.585938-3.074219-7.347656 0-2.761719 1.109375-5.410156 3.074219-7.351563zm0 0" data-original="#333333" class="" style="fill:#333333" data-old_color="#555555"/><path d="m204.429688 264.757812c-11.875-11.867187-31.121094-11.867187-42.988282.003907-11.871094 11.875-11.871094 31.121093 0 42.992187 11.867188 11.871094 31.113282 11.871094 42.988282.003906 5.71875-5.695312 8.929687-13.429687 8.929687-21.5 0-8.070312-3.210937-15.804687-8.929687-21.5zm-14.199219 28.898438c-3.320313 3.363281-8.492188 4.0625-12.585938 1.703125-4.09375-2.355469-6.082031-7.179687-4.839843-11.738281 1.242187-4.558594 5.398437-7.707032 10.125-7.664063 2.761718.007813 5.414062 1.082031 7.398437 3 4.023437 4.089844 3.976563 10.664063-.097656 14.699219zm0 0" data-original="#333333" class="" style="fill:#333333" data-old_color="#555555"/><path d="m119.730469 252.457031h.398437l130-5.699219c5.519532-.226562 9.8125-4.878906 9.59375-10.398437-.222656-5.519531-4.875-9.816406-10.394531-9.601563l-130 5.699219c-5.523437.113281-9.910156 4.679688-9.800781 10.199219.113281 5.523438 4.679687 9.914062 10.203125 9.800781zm0 0" data-original="#333333" class="" style="fill:#333333" data-old_color="#555555"/></g></g> </svg>
