<?xml version="1.0"?>
<svg xmlns="http://www.w3.org/2000/svg" xmlns:xlink="http://www.w3.org/1999/xlink" version="1.1" id="Layer_1" x="0px" y="0px" viewBox="0 0 496.968 496.968" style="enable-background:new 0 0 496.968 496.968;" xml:space="preserve" width="512px" height="512px" class=""><g><g>
	<path style="fill:#333333;" d="M248.968,0.484c-83.816,0-152,68.184-152,152s68.184,152,152,152s152-68.184,152-152   S332.784,0.484,248.968,0.484z M384.56,144.484h-50.976c-0.152-4.456-0.384-8.872-0.776-13.144l-15.936,1.504   c0.352,3.784,0.568,7.688,0.72,11.64h-60.624V97.7c17.096-0.888,33.728-4.448,49.28-10.776c2.176,5.608,4.184,11.48,5.824,17.872   l15.504-3.968c-1.912-7.472-4.264-14.312-6.816-20.808c9.984-5.376,19.344-11.976,28.04-19.584   C369.472,82.844,382.664,112.132,384.56,144.484z M202.928,213.988c-3.8,1.208-7.528,2.624-11.224,4.136   c-6.16-15.904-10.336-35.072-11.184-57.648h60.448v46.792c-2.384,0.128-4.768,0.12-7.128,0.352l1.576,15.92   c1.856-0.184,3.696-0.136,5.544-0.24v59.056c-11.408-7.976-29.152-23.624-42.56-49.528c3.104-1.256,6.184-2.584,9.368-3.6   L202.928,213.988z M190.592,53.132c-2.472,3.952-4.728,8.032-6.856,12.192c-8.176-4.488-15.888-9.88-23.088-16.056   c16.392-14.048,36.128-24.224,57.864-29.224c-2.928,2.616-5.928,5.416-9,8.656l11.608,11.016   c7.296-7.696,14.288-13.24,19.848-17.104V81.7c-14.848-0.864-29.288-3.984-42.816-9.448c1.864-3.632,3.848-7.184,6.008-10.624   L190.592,53.132z M256.968,22.652c11.472,8.048,29.384,23.656,42.8,49.608c-13.528,5.456-27.968,8.576-42.8,9.44V22.652z    M279.592,20.092c21.664,5.016,41.352,15.168,57.696,29.184c-7.192,6.168-14.888,11.544-23.048,16.032   C303.848,44.892,290.96,30.228,279.592,20.092z M240.968,97.7v46.784h-60.56c0.768-20.896,4.536-40.144,11.256-57.576   C207.224,93.252,223.864,96.812,240.968,97.7z M218.104,284.82c-21.544-5.024-41.12-15.128-57.392-29.056   c7.104-6.072,14.768-11.408,22.928-15.912C193.952,260.068,206.768,274.708,218.104,284.82z M256.968,282.492v-59.16   c14.776,0.88,29.176,4.136,42.76,9.608C286.28,259.1,268.456,274.62,256.968,282.492z M314.296,239.852   c8.128,4.464,15.808,9.76,22.952,15.88c-16.28,13.936-35.864,24.056-57.416,29.08C291.168,274.708,303.984,260.068,314.296,239.852   z M256.968,207.268v-46.784h60.456c-0.84,22.608-4.952,41.76-11.024,57.632C290.808,211.748,274.12,208.164,256.968,207.268z    M149.144,60.436c8.696,7.6,18.048,14.208,28.032,19.576c-7.696,19.544-11.976,41.104-12.768,64.472h-51.032   C115.272,112.132,128.464,82.844,149.144,60.436z M113.376,160.484h50.968c0.856,25.424,5.696,46.792,12.656,64.584   c-9.976,5.392-19.384,11.872-27.96,19.352C128.424,222.028,115.264,192.78,113.376,160.484z M348.792,244.532   c-8.64-7.552-17.936-14.12-27.856-19.472c6.96-17.792,11.8-39.152,12.648-64.576h50.968   C382.664,192.836,369.472,222.124,348.792,244.532z" data-original="#333333" class=""/>
	<path style="fill:#333333;" d="M496.808,370.052l0.16-49.568l-16.08-81.136l-5.432-37.992c-0.976-6.832-4.824-12.952-10.536-16.8   c-5.728-3.84-12.856-5.112-19.536-3.424c-11.992,2.992-19.744,14.376-18.272,26.592c-7.088-0.608-14.384,1.68-19.8,7.096   c-7.048,7.048-8.92,17.288-5.76,26.104c-3.792,1.12-7.36,3.016-10.24,5.896c-7.048,7.048-8.92,17.288-5.76,26.104   c-3.792,1.12-7.36,3.016-10.24,5.896c-4.72,4.712-7.312,10.984-7.312,17.656s2.592,12.944,7.312,17.656l24.96,24.96l-7.304,10.968   v50.424h-8v96h112v-96h-6.24L496.808,370.052z M418.624,226.14c2.976-2.976,7.456-3.264,10.904-1.184l3.44,24.096v4.12   l-6.344-6.344l-8-8c-1.696-1.696-2.624-3.944-2.624-6.344S416.928,227.836,418.624,226.14z M402.624,258.14   c3.392-3.392,9.296-3.392,12.688,0l15.192,15.192c-3.408,4.152-5.536,9.376-5.536,15.152v4.688l-14.344-14.344l-8-8   c-1.696-1.696-2.624-3.944-2.624-6.344S400.928,259.836,402.624,258.14z M386.624,302.828c-1.696-1.696-2.624-3.944-2.624-6.344   s0.928-4.648,2.624-6.344c3.504-3.504,9.184-3.504,12.688,0l20,20l0.16,0.16l-10.152,15.224L386.624,302.828z M408.968,354.908   l32-48v-18.424c0-4.416,3.584-8,8-8s8,3.584,8,8v56h16v-56c0-13.232-10.768-24-24-24v-16l-5.984-42.488   c-0.608-4.272,2.088-8.288,6.272-9.344c2.368-0.576,4.736-0.16,6.736,1.176c2,1.344,3.288,3.4,3.624,5.792l5.504,38.432   l15.848,79.224V367.7l-6.56,32.784h-65.44V354.908z M480.968,480.484h-80v-64h80V480.484z" data-original="#333333" class=""/>
	<path style="fill:#333333;" d="M111.456,272.78c3.088-8.784,1.208-18.944-5.8-25.96c-2.944-2.936-6.48-4.88-10.2-6.04   c3.088-8.784,1.208-18.944-5.8-25.96c-5.424-5.408-12.712-7.688-19.8-7.08c1.48-12.224-6.272-23.6-18.272-26.6   c-6.688-1.696-13.816-0.424-19.536,3.424c-5.72,3.84-9.56,9.968-10.536,16.8l-5.352,37.552l-16,80L0,368.484l6.28,32H0v96h112v-96   h-8V350.06l-7.304-10.96l24.96-24.96c4.72-4.712,7.312-10.984,7.312-17.656s-2.592-12.944-7.312-17.664   C118.704,275.884,115.176,273.948,111.456,272.78z M94.344,270.828l-8,8L72,293.164v-4.68c0-5.776-2.128-11-5.536-15.152   l15.192-15.192c3.504-3.504,9.184-3.504,12.688,0c1.696,1.696,2.624,3.944,2.624,6.344S96.04,269.132,94.344,270.828z    M78.344,226.14c1.696,1.696,2.624,3.944,2.624,6.344s-0.928,4.648-2.624,6.344l-8,8L64,253.172v-4.12l3.44-24.104   C70.888,222.876,75.368,223.164,78.344,226.14z M96,480.484H16v-64h80V480.484z M22.56,400.484L16,367.692v-46.424l15.92-79.656   l5.432-37.992c0.336-2.392,1.624-4.448,3.624-5.792c2-1.328,4.376-1.768,6.728-1.176c4.192,1.056,6.888,5.072,6.28,9.344   l-5.904,41.352l-0.056,17.136c-0.008,0-0.016,0-0.024,0c-13.232,0-24,10.768-24,24v56h16v-56c0-4.416,3.584-8,8-8s8,3.584,8,8   v18.424l32,48v45.576H22.56z M110.344,302.828L87.64,325.532L77.488,310.3l0.16-0.16l0,0l20-20c3.504-3.504,9.184-3.504,12.688,0   c1.704,1.696,2.632,3.944,2.632,6.344S112.04,301.132,110.344,302.828z" data-original="#333333" class=""/>
</g><g>
	<path style="fill:#EE1A2D" d="M205.528,67.556c-12.352,0-22.4-10.048-22.4-22.4s10.048-22.4,22.4-22.4s22.408,10.048,22.408,22.4   S217.88,67.556,205.528,67.556z" data-original="#F9BA48" class="active-path" data-old_color="#ee1a2d"/>
	<path style="fill:#EE1A2D" d="M323.232,139.596c-12.352,0-22.4-10.048-22.4-22.4s10.048-22.4,22.4-22.4s22.4,10.048,22.4,22.4   S335.584,139.596,323.232,139.596z" data-original="#F9BA48" class="active-path" data-old_color="#ee1a2d"/>
	<path style="fill:#EE1A2D" d="M219.752,240.5c-12.352,0-22.4-10.048-22.4-22.4s10.048-22.408,22.4-22.408   s22.408,10.056,22.408,22.408S232.104,240.5,219.752,240.5z" data-original="#F9BA48" class="active-path" data-old_color="#ee1a2d"/>
</g></g> </svg>
