<svg xmlns="http://www.w3.org/2000/svg" viewBox="0 0 379.09 107.36" width="265px" height="75px"><defs><style>.cls-1{fill:#787874;}.cls-2{fill:#ee3130;}</style></defs><title>Ресурс 12</title><g id="Слой_2" data-name="Слой 2"><g id="Layer_1" data-name="Layer 1"><path class="cls-1" d="M321.2,57.67a3.49,3.49,0,0,0,.46,2c.76,1.05,2.95,1.12,4.09,1.12h9.31c2.53,0,4.22-.51,4.22-3.27V56.7a13.9,13.9,0,0,1-4.25.55h-9.28c-6,0-9-2.09-9-8.4V41.62h4.46V49.7a3.59,3.59,0,0,0,.46,2c.76,1.05,2.95,1.12,4.09,1.12h9.31c2.53,0,4.22-.51,4.22-3.27v-8h4.45V56.68c0,6.23-2.68,8.46-8.7,8.46h-9.28c-5.71,0-8.69-1.88-9-7.47Z"/><path class="cls-1" d="M197.49,53.36c0,1.15-.07,3.34-1.12,4.1a3.62,3.62,0,0,1-2,.46H185.4V46.21h8.81c2.77,0,3.28,1.7,3.28,4.23Zm-16.56,4.57H172a3.61,3.61,0,0,1-2-.46c-1.06-.76-1.12-3-1.12-4.1V50.44c0-2.53.51-4.23,3.28-4.23h8.81Zm17.81-15.07a10.56,10.56,0,0,0-5.33-1.12h-20.5c-3.26,0-5.41.74-6.74,2.29s-1.74,3.54-1.74,6.43v2.89c0,2.94.5,5.15,1.74,6.65s3.43,2.38,6.68,2.38h8.07v3h4.47v-3h8.07a10.06,10.06,0,0,0,5.27-1.17c2.28-1.38,3.15-4,3.15-7.87V50.47c0-3.83-.9-6.3-3.15-7.61"/><polygon class="cls-1" points="253.98 41.62 258.45 41.62 258.45 65.14 253.98 65.14 253.98 55.61 237.19 55.61 237.19 65.14 232.72 65.14 232.72 41.62 237.19 41.62 237.19 51.14 253.98 51.14 253.98 41.62"/><polygon class="cls-1" points="157.76 41.83 162.23 41.83 162.23 65.36 157.76 65.36 157.76 55.83 140.97 55.83 140.97 65.36 136.5 65.36 136.5 41.83 140.97 41.83 140.97 51.36 157.76 51.36 157.76 41.83"/><polygon class="cls-1" points="129.61 48.23 129.61 65.36 134.08 65.36 134.08 41.83 129.25 41.83 112.82 60.94 112.82 41.83 108.35 41.83 108.35 65.36 114.91 65.36 129.61 48.23"/><polygon class="cls-1" points="281.95 48.01 281.95 65.14 286.42 65.14 286.42 41.62 281.58 41.62 265.16 60.73 265.16 41.62 260.69 41.62 260.69 65.14 267.24 65.14 281.95 48.01"/><polygon class="cls-1" points="226.02 48.01 226.02 65.14 230.49 65.14 230.49 41.62 225.65 41.62 209.23 60.73 209.23 41.62 204.76 41.62 204.76 65.14 211.31 65.14 226.02 48.01"/><polygon class="cls-1" points="304.43 46.03 304.43 65.14 299.96 65.14 299.96 46.03 289.64 46.03 289.64 41.62 314.81 41.62 314.81 46.03 304.43 46.03"/><polygon class="cls-1" points="372.59 41.62 362.51 58.66 352.38 41.62 345.88 41.62 345.88 65.14 350.35 65.14 350.35 46.49 361.28 65.14 363.71 65.14 374.62 46.54 374.62 65.14 379.09 65.14 379.09 41.62 372.59 41.62"/><path class="cls-2" d="M53.58,22.2A31.44,31.44,0,0,1,85,53.64c0,.9,0,1.8-.11,2.68H78A24.54,24.54,0,0,0,32.11,41.76H73.28a23.71,23.71,0,0,1,2.91,7.67H22.43A31.45,31.45,0,0,1,53.58,22.2m0,56A24.52,24.52,0,0,0,74.13,67.06H82a31.44,31.44,0,0,1-59.6-9.2H98.21V49.43H86.28a32,32,0,0,0-1.94-7.67h21.61v-.33A53.22,53.22,0,0,0,103,32.56a53.68,53.68,0,1,0,0,42.24,53.22,53.22,0,0,0,2.92-8.87v-.41H32.11A24.53,24.53,0,0,0,53.58,78.18"/><polygon class="cls-2" points="238.59 71.32 238.59 72.58 234.69 72.58 234.69 77.64 233.18 77.64 233.18 71.32 238.59 71.32"/><path class="cls-2" d="M242.91,74.52h2.52a1.41,1.41,0,0,0,.59-.1.59.59,0,0,0,.3-.31,1.5,1.5,0,0,0,.09-.56,1.06,1.06,0,0,0-.21-.73,1,1,0,0,0-.77-.23h-2.52Zm-1.51,3.13V71.32h4.31a3.71,3.71,0,0,1,1,.12,1.59,1.59,0,0,1,.68.38,1.57,1.57,0,0,1,.39.68,3.63,3.63,0,0,1,.13,1,3.17,3.17,0,0,1-.23,1.29,1.41,1.41,0,0,1-.71.72,3,3,0,0,1-1.26.23h-2.81v1.87Z"/><path class="cls-2" d="M256,71.32h1.79l-2.94,4.75c-.24.38-.44.66-.59.86a2.1,2.1,0,0,1-.46.45,1.34,1.34,0,0,1-.5.21,4.25,4.25,0,0,1-.74.05H252V76.45h.3q.87,0,.87-.38a.59.59,0,0,0-.11-.29l-2.92-4.46h1.79L254,74.88Z"/><polygon class="cls-2" points="260.39 77.64 260.39 71.32 261.9 71.32 265.8 71.32 267.32 71.32 267.32 77.64 265.81 77.64 265.81 72.58 261.9 72.58 261.9 77.64 260.39 77.64"/><polygon class="cls-2" points="270.12 77.64 270.12 71.32 271.63 71.32 275.53 71.32 277.05 71.32 277.05 77.64 275.54 77.64 275.54 72.58 271.63 72.58 271.63 77.64 270.12 77.64"/><path class="cls-2" d="M282.63,74.86h2.52L284,72.5h-.07Zm-1.43,2.79h-1.77l3.35-6.32H285l3.32,6.32h-1.78L285.77,76H282Z"/><polygon class="cls-2" points="295.76 77.64 295.76 71.32 297.26 71.32 297.26 73.68 298.16 73.68 300.92 71.32 303.18 71.32 299.46 74.28 303.33 77.64 301.11 77.64 298.18 74.94 297.26 74.94 297.26 77.64 295.76 77.64"/><path class="cls-2" d="M307.35,75.33a1.65,1.65,0,0,0,.11.65.6.6,0,0,0,.36.32,2.17,2.17,0,0,0,.72.09h2a2.33,2.33,0,0,0,.74-.09.56.56,0,0,0,.34-.31,1.74,1.74,0,0,0,.1-.66V73.71a1.71,1.71,0,0,0-.12-.7.63.63,0,0,0-.37-.33,2.2,2.2,0,0,0-.73-.09h-2a2.15,2.15,0,0,0-.73.1.62.62,0,0,0-.36.34,1.9,1.9,0,0,0-.12.7Zm5.88.15a3.92,3.92,0,0,1-.11,1,1.43,1.43,0,0,1-.37.66,1.54,1.54,0,0,1-.7.37,4.4,4.4,0,0,1-1.11.12h-2.78a4.08,4.08,0,0,1-1.08-.12,1.67,1.67,0,0,1-.72-.38,1.5,1.5,0,0,1-.41-.67,3.28,3.28,0,0,1-.13-1V73.56a3.89,3.89,0,0,1,.13-1.09,1.46,1.46,0,0,1,.39-.68,1.57,1.57,0,0,1,.71-.36,4.65,4.65,0,0,1,1.11-.11h2.78a3.68,3.68,0,0,1,1.31.19,1.35,1.35,0,0,1,.73.68,3.15,3.15,0,0,1,.24,1.36Z"/><polygon class="cls-2" points="326.09 77.64 324.57 77.64 324.57 72.58 324.38 72.58 322.21 77.64 320.06 77.64 317.89 72.58 317.69 72.58 317.69 77.64 316.18 77.64 316.18 71.32 318.99 71.32 321.09 76.39 321.18 76.39 323.27 71.32 326.09 71.32 326.09 77.64"/><polygon class="cls-2" points="328.96 77.64 328.96 71.32 330.47 71.32 334.37 71.32 335.89 71.32 335.89 77.64 334.38 77.64 334.38 72.58 330.47 72.58 330.47 77.64 328.96 77.64"/><path class="cls-2" d="M341.48,74.86H344l-1.2-2.35h-.07ZM340,77.64h-1.76l3.35-6.32h2.24l3.33,6.32h-1.78L344.61,76h-3.74Z"/><polygon class="cls-2" points="349.5 77.64 349.5 71.32 351.01 71.32 351.01 73.74 354.91 73.74 354.91 71.32 356.43 71.32 356.43 77.64 354.91 77.64 354.91 75 351.01 75 351.01 77.64 349.5 77.64"/><polygon class="cls-2" points="365.96 77.64 365.96 72.58 365.75 72.58 361.95 77.64 359.35 77.64 359.35 71.32 360.86 71.32 360.86 76.39 361.07 76.39 364.93 71.32 367.47 71.32 367.47 77.64 365.96 77.64"/><path class="cls-2" d="M376.48,69.56a1.46,1.46,0,0,1-.17.77,1,1,0,0,1-.63.4,7.4,7.4,0,0,1-2.73,0,1,1,0,0,1-.63-.4,1.46,1.46,0,0,1-.17-.77v-.08h1.23v.09a.6.6,0,0,0,.09.36.4.4,0,0,0,.27.15,5,5,0,0,0,1.16,0,.41.41,0,0,0,.27-.15.61.61,0,0,0,.08-.36v-.09h1.23Zm.63,8.08V72.58h-.21l-3.8,5.06h-2.6V71.32H372v5.07h.21l3.85-5.07h2.54v6.32Z"/></g></g></svg>