<svg xmlns="http://www.w3.org/2000/svg" width="197" height="53" viewBox="0 0 197 53">
    <g fill="none" fill-rule="evenodd">
        <path d="M-43-8h240v68H-43z"/>
        <path fill="#C2C0C2" d="M13 27h7V7h-7v20zm91 0h7V14h-7v13zM26 41h7V14h-7v27zm52 0h7V14h-7v27zm13 6h7V20h-7v27zM0 40h7V27H0v13z"/>
        <path fill="#E2231A" d="M65 53h7V20h-7zM39 14h7V0h-7zM39 53h7V20h-7zM52 53h7V0h-7zM65 14h7V0h-7zM190.673 51.564V39.261h-1.32v13.448H197v-1.145h-6.327zm-6.322-3.668h-5.741c.494-1.33.97-2.571 1.432-3.72.461-1.15.935-2.284 1.422-3.402a134.236 134.236 0 0 1 2.887 7.122zm3.197 4.813a316.472 316.472 0 0 1-1.485-3.914 123.74 123.74 0 0 0-1.333-3.433c-.438-1.079-.87-2.116-1.296-3.113a78.615 78.615 0 0 0-1.35-2.988h-1.164a94.4 94.4 0 0 0-1.358 2.992 144.754 144.754 0 0 0-2.638 6.542 477.77 477.77 0 0 0-1.447 3.914h1.378c.24-.657.467-1.291.683-1.9.214-.61.433-1.206.658-1.787h6.57c.196.578.403 1.172.618 1.782.217.61.452 1.244.708 1.905h1.456zM165.347 39.26v1.145h4.308V52.71h1.32V40.406h4.308v-1.145h-9.936zm-4.251 13.448h1.32V39.26h-1.32v13.448zm-5.88-11.809c.395.227.713.535.952.922.239.389.359.88.359 1.475 0 .621-.11 1.132-.33 1.533-.22.402-.533.716-.942.941-.408.227-.898.382-1.475.466-.575.084-1.219.126-1.93.126h-1.669v-5.938c.245-.026.54-.055.883-.087.342-.033.76-.049 1.252-.049.53 0 1.047.045 1.552.136.505.09.954.25 1.349.475zm-6.356-1.387V52.71h1.321v-5.2h1.824c.919 0 1.744-.075 2.474-.224.73-.148 1.35-.388 1.854-.718.504-.33.892-.763 1.165-1.3.27-.537.407-1.187.407-1.95 0-1.333-.466-2.361-1.398-3.086-.931-.724-2.348-1.087-4.25-1.087-.543 0-1.128.03-1.756.088a9.409 9.409 0 0 0-1.64.281zm-5.56 8.383h-5.74c.493-1.33.972-2.571 1.433-3.72.46-1.15.934-2.284 1.421-3.402.487 1.113.965 2.245 1.436 3.396.47 1.152.954 2.393 1.45 3.726zm3.198 4.813a332.818 332.818 0 0 1-1.485-3.914 125.33 125.33 0 0 0-1.333-3.433c-.438-1.079-.87-2.116-1.296-3.113a80.15 80.15 0 0 0-1.35-2.988h-1.164c-.474 1-.927 1.998-1.357 2.992-.431.995-.865 2.032-1.302 3.111a146.942 146.942 0 0 0-1.336 3.431 444.538 444.538 0 0 0-1.448 3.914h1.379c.239-.657.467-1.291.681-1.9.215-.61.435-1.206.659-1.787h6.57c.197.578.403 1.172.619 1.782.215.61.45 1.244.708 1.905h1.455zm-14.69-.02c.336-.09.616-.177.835-.261.22-.085.375-.159.466-.224l-.369-1.125c-.297.168-.734.333-1.31.495-.576.161-1.29.242-2.145.242-.776 0-1.465-.136-2.066-.407a4.166 4.166 0 0 1-1.524-1.165c-.414-.504-.728-1.115-.941-1.833-.213-.718-.32-1.524-.32-2.417 0-.866.107-1.655.32-2.367a5.223 5.223 0 0 1 .96-1.844 4.353 4.353 0 0 1 1.582-1.202c.628-.286 1.362-.427 2.203-.427.737 0 1.355.093 1.854.281a7.76 7.76 0 0 1 1.232.572l.426-1.145a3.463 3.463 0 0 0-.504-.261 7.52 7.52 0 0 0-1.883-.534 8.95 8.95 0 0 0-1.378-.097c-.814 0-1.597.152-2.347.456-.75.304-1.41.754-1.98 1.348-.57.596-1.025 1.33-1.368 2.203-.343.874-.515 1.873-.515 2.998 0 1.126.158 2.125.476 2.999.317.873.75 1.607 1.3 2.202a5.506 5.506 0 0 0 1.94 1.359c.744.31 1.55.465 2.417.465.543 0 1.035-.03 1.475-.087.44-.059.828-.133 1.164-.224zM139 32h2V19h-2v13zm-12-13v1.978h4.09V32h1.82V20.978H137V19h-10zm-4 13h2V19h-2v13z"/>
    </g>
</svg>
