<svg id="Слой_1" data-name="Слой 1" xmlns="http://www.w3.org/2000/svg" xmlns:xlink="http://www.w3.org/1999/xlink" viewBox="0 0 150 51.67"><defs><style>.cls-1{fill:#5d5d5d;}.cls-2{fill:url(#linear-gradient);}</style><linearGradient id="linear-gradient" x1="14.85" y1="29.33" x2="14.85" gradientUnits="userSpaceOnUse"><stop offset="0" stop-color="#71e2ff"/><stop offset="1" stop-color="#07ccff"/></linearGradient></defs><title>logo_stand</title><path class="cls-1" d="M110.07,8.52H121v2.4h-.79a1.37,1.37,0,0,0-1.38-1.23h-1.9V20.78h-2.69V9.69h-2a1.35,1.35,0,0,0-1.38,1.23h-.79Z"/><path class="cls-1" d="M132.86,8.52h2V20.78H132.2V12.22l-6.5,8.56h-2v-10a1.55,1.55,0,0,0-1.25-1.62V8.52h3.87v8.63Z"/><path class="cls-1" d="M75.86,20.78H72.45L70,16.24s-.72-1.36-1.51-1.36h-1v5.9H64.83v-10a1.49,1.49,0,0,0-1.32-1.55V8.52h4v5.12h1.18a2.11,2.11,0,0,0,1.44-1.1c2.1-3.38,1.84-4,2.76-4h2.63v.84c-1.84,0-2.37,3.7-4.14,4.87.86.32,1.18,1.1,3.09,4.54,0,0,.46,1.17,1.38,1.17Z"/><path class="cls-1" d="M140.48,13.39h6.44v-.65a3.22,3.22,0,0,0-6.44,0Zm8.73,4.74A6.68,6.68,0,0,1,143.7,21c-3.28,0-6.44-2.53-6.44-5.84v-.71a6.15,6.15,0,0,1,6.44-6.1,6.28,6.28,0,0,1,6.3,6.29h-9.52v2A3.29,3.29,0,0,0,144,19.81,5.32,5.32,0,0,0,148.1,18Z"/><path class="cls-1" d="M85.14,8.33a4.59,4.59,0,0,0-3.61,1.56V8.52H77.59v.71a1.53,1.53,0,0,1,1.25,1.56V26.37h2.69V19.48A4.48,4.48,0,0,0,84.94,21a5.84,5.84,0,0,0,5.84-6v-.78c0-3.57-2.23-5.84-5.64-5.84m2.5,8.24a3,3,0,0,1-2.83,3.12h-.26a3.08,3.08,0,0,1-3-2.27V12.15a3.1,3.1,0,0,1,3-2.59h.52a2.87,2.87,0,0,1,2.56,3.12Z"/><path class="cls-1" d="M44.22,8.33a6.17,6.17,0,0,0-6.57,5.91v1C37.65,18,40.34,21,44.22,21c3.61,0,6.63-2.66,6.63-5.78v-.84c0-3.12-2.5-6-6.63-6m3.41,8.17a3.31,3.31,0,0,1-3.41,3.31,3.26,3.26,0,0,1-3.35-3.31V12.61a3.39,3.39,0,0,1,6.76.07Z"/><path class="cls-1" d="M108.24,8.52H104.3v.71a1.58,1.58,0,0,1,1.31,1.62v9.93h2.63Z"/><path class="cls-1" d="M96.67,13.19V8.52H92.74v.72a1.42,1.42,0,0,1,1.18,1.55v10H100c2.37,0,4.07-1.43,4.07-3.44v-.58c0-2.21-1.64-3.57-4.21-3.57Zm0,6.36V14.42H99a2.25,2.25,0,0,1,2.23,2.4v.52a2.35,2.35,0,0,1-2.3,2.21Z"/><path class="cls-1" d="M51.31,8.52h10.9v2.4h-.79A1.38,1.38,0,0,0,60,9.69h-1.9V20.78H55.45V9.69h-2a1.34,1.34,0,0,0-1.37,1.23h-.79Z"/><path class="cls-2" d="M14.85,0A14.76,14.76,0,0,0,0,14.67,14.76,14.76,0,0,0,14.85,29.33,14.76,14.76,0,0,0,29.69,14.67,14.76,14.76,0,0,0,14.85,0M11.72,21.86a1.27,1.27,0,0,1,.63.83,1.35,1.35,0,0,1-.16,1,1.2,1.2,0,0,1-1.07.56,1.78,1.78,0,0,1-.72-.16l-.7-.32A9.34,9.34,0,0,1,4.79,15.4V13.93A9.36,9.36,0,0,1,9.71,5.57l.68-.32a1.73,1.73,0,0,1,.72-.16,1.21,1.21,0,0,1,1.07.56,1.34,1.34,0,0,1,.16,1,1.29,1.29,0,0,1-.65.85,5,5,0,0,0-2.91,4.58v5.2a5,5,0,0,0,2.93,4.59M24.9,15.4A9.34,9.34,0,0,1,20,23.76l-.7.32a1.78,1.78,0,0,1-.73.16,1.2,1.2,0,0,1-1.07-.56,1.35,1.35,0,0,1-.16-1,1.27,1.27,0,0,1,.63-.83,5,5,0,0,0,2.93-4.59v-5.2A5,5,0,0,0,18,7.48a1.29,1.29,0,0,1-.65-.85,1.34,1.34,0,0,1,.16-1,1.2,1.2,0,0,1,1.07-.56,1.71,1.71,0,0,1,.72.16l.68.32a9.35,9.35,0,0,1,4.93,8.36Z"/><path class="cls-1" d="M40.44,39.52c-.48.92-.91,1.24-1.58,1.24a1.84,1.84,0,0,1-.61-.1l-.11-.78a2.68,2.68,0,0,0,.66.11c.35,0,.59-.16.86-.67l.36-.68-2.28-4.18.89-.14,1.84,3.48,1.69-3.42h.93Z"/><polygon class="cls-1" points="48.31 40.65 48.31 35.16 45.16 35.16 45.16 40.65 44.3 40.65 44.3 34.38 49.17 34.38 49.17 40.65 48.31 40.65"/><path class="cls-1" d="M52.6,38.1h-.67v2.54h-.87V34.38h1.68c1.34,0,2.15.65,2.15,1.81S54,38.1,52.6,38.1m.1-3h-.77v2.22h.72c.86,0,1.38-.35,1.38-1.14s-.46-1.08-1.32-1.08"/><path class="cls-1" d="M57.72,34.35h.86L61,40.53l-.85.18-.75-1.94H56.85l-.71,1.88h-.9ZM57.12,38h2l-1-2.66Z"/><path class="cls-1" d="M63.94,40.65H62.43V34.38H64C65.36,34.38,66,35,66,36a1.34,1.34,0,0,1-.91,1.3,1.48,1.48,0,0,1,1.19,1.51c0,1.25-.88,1.83-2.34,1.83m0-5.54h-.67V37h.61c.84,0,1.29-.37,1.29-1s-.36-.93-1.22-.93m0,2.61h-.71v2.21H64c.91,0,1.43-.37,1.43-1.09s-.51-1.12-1.46-1.12"/><path class="cls-1" d="M72.56,40.65h-.86V35.16H69.93l-.21,1.76c-.32,2.69-.89,3.54-2.4,3.86L67.19,40c1.06-.3,1.43-1,1.69-3.19l.29-2.42h3.39Z"/><path class="cls-1" d="M75.68,37.92a1.62,1.62,0,0,1-1.35-1.71c0-1.13.83-1.83,2.18-1.83h1.66v6.27H77.3V38h-.71l-1.88,2.71-.86-.19Zm.83-.63h.79V35.13h-.83c-.84,0-1.28.41-1.28,1.06s.53,1.1,1.31,1.1"/><path class="cls-1" d="M84.73,40.77c-1.55,0-2.57-1.18-2.67-3H80.92v2.84h-.86V34.38h.86V37h1.16a2.71,2.71,0,0,1,2.67-2.76c1.65,0,2.68,1.31,2.68,3.24s-1,3.26-2.69,3.26m0-5.73c-1.15,0-1.8,1-1.8,2.47S83.6,40,84.74,40s1.8-1,1.8-2.47S85.88,35,84.74,35"/><polygon class="cls-1" points="92.29 39.88 92.29 34.38 93.14 34.38 93.14 39.88 95.49 39.88 95.49 34.38 96.34 34.38 96.34 39.85 97.07 39.85 97.07 42.02 96.25 42.15 96.25 40.65 89.09 40.65 89.09 34.38 89.94 34.38 89.94 39.88 92.29 39.88"/><path class="cls-1" d="M100.43,34.35h.86l2.45,6.18-.86.18-.75-1.94H99.56l-.71,1.88h-.9ZM99.83,38h2l-1-2.66Z"/><path class="cls-1" d="M106.37,37.92A1.62,1.62,0,0,1,105,36.21c0-1.13.83-1.83,2.18-1.83h1.66v6.27H108V38h-.71l-1.89,2.71-.85-.19Zm.83-.63H108V35.13h-.83c-.84,0-1.28.41-1.28,1.06s.53,1.1,1.31,1.1"/><polygon class="cls-1" points="41.96 51.61 39.03 48.37 39.03 51.55 38.16 51.55 38.16 45.28 39.03 45.28 39.03 48.1 41.66 45.28 42.76 45.28 39.97 48.22 42.92 51.41 41.96 51.61"/><path class="cls-1" d="M46.37,51.67c-1.78,0-2.91-1.31-2.91-3.24s1.15-3.26,2.93-3.26,2.92,1.31,2.92,3.24-1.14,3.26-2.93,3.26m0-5.72c-1.26,0-2,1-2,2.47s.78,2.47,2,2.47,2-1,2-2.47-.78-2.47-2-2.47"/><polygon class="cls-1" points="57.03 51.55 56.64 46.49 54.65 51.58 53.96 51.58 51.97 46.49 51.59 51.55 50.78 51.55 51.28 45.28 52.35 45.28 54.33 50.42 56.3 45.28 57.36 45.28 57.86 51.55 57.03 51.55"/><polygon class="cls-1" points="63.59 51.55 63.59 46.06 60.45 46.06 60.45 51.55 59.58 51.55 59.58 45.28 64.46 45.28 64.46 51.55 63.59 51.55"/><path class="cls-1" d="M68.34,45.25h.86l2.45,6.18-.85.18L70,49.67H67.46l-.71,1.88h-.9Zm-.6,3.66h2l-1-2.66Z"/><polygon class="cls-1" points="77.12 51.55 77.12 48.66 73.91 48.66 73.91 51.55 73.04 51.55 73.04 45.28 73.91 45.28 73.91 47.88 77.12 47.88 77.12 45.28 77.98 45.28 77.98 51.55 77.12 51.55"/><polygon class="cls-1" points="79.88 51.55 79.88 45.28 80.73 45.28 80.73 50.2 83.93 45.28 84.81 45.28 84.81 51.55 83.96 51.55 83.96 46.62 80.76 51.55 79.88 51.55"/><path class="cls-1" d="M87.94,48.82a1.62,1.62,0,0,1-1.35-1.71c0-1.14.83-1.84,2.18-1.84h1.65v6.27h-.86V48.9h-.71L87,51.61l-.86-.19Zm.83-.64h.79V46h-.83c-.84,0-1.28.41-1.28,1.05s.53,1.1,1.32,1.1"/></svg>