<svg xmlns="http://www.w3.org/2000/svg" viewBox="0 0 739.13 180.81"><defs><style>.cls-1{fill:#389a46;}</style></defs><title>Ресурс 2</title><g id="Слой_2" data-name="Слой 2"><g id="Layer_3" data-name="Layer 3"><path class="cls-1" d="M122.69 14.6a72.44 72.44 0 0 0-6.36-5.45L44 50.74 9.51 30.88A72.46 72.46 0 0 0 6 38l38 21.84z"/><path class="cls-1" d="M109 4.24A72.08 72.08 0 0 0 100.55 0L44 32.51 18.86 18a73.79 73.79 0 0 0-5 6.2L44 41.63z"/><path class="cls-1" d="M132.94 26.93a73.69 73.69 0 0 0-4.74-6.39L44 69 3.19 45.47a71.53 71.53 0 0 0-2 8L44 78.07z"/><path class="cls-1" d="M136.94 33.75L44 87.18.17 62C.06 63.55 0 65.16 0 66.79a72.44 72.44 0 1 0 136.94-33zM241.42 84l2.37 4.52c-6.88 4.41-16.12 6.88-25.69 6.88-22.57 0-35.58-12-35.58-37.95 0-24.83 10.43-39.88 37.09-39.88 11.82 0 19.78 2.58 21.93 3.44-.21 5.05-.21 10.64 0 15.69h-4.84l-1.29-4.73c-1.72-5.59-5.05-9.46-15.26-9.46-16 0-20.1 11.82-20.1 32.14 0 19.35 4 33.75 22.58 33.75a39 39 0 0 0 18.79-4.4zM275.18 45.81H271V28c0-3.23.64-4.41 5.38-4.41h10.32c9.78 0 12.47.75 14.83 8.49l1 3.12h4.08c-.21-5.48-.21-10.86 0-16.34h-56v2.34c3.76.86 4.3 1.94 4.3 6v58.5c0 4.08-.54 5.16-4.3 6v2.37h30.1c18.38 0 29.78-4.95 29.78-25.15-.05-20.74-14.67-23.11-35.31-23.11zm4.73 43.54h-2.26c-5.37 0-6.67-1.72-6.67-6.56V50.54h6.56c12.68 0 16 6.88 16 19.13.02 13.12-3.85 19.68-13.63 19.68zM343.12 23.56c-3.22 0-3.76.86-3.76 3.44v23.33h10c4.19 0 10.75-.43 13.33-2.26v9.46c-2.58-1.83-9.14-2.26-13.33-2.26h-10v28.06c0 4.52 1.83 6 11.72 6h2.15c9.78 0 12.36-.64 14.51-10l.65-2.79h4.73c-.21 5.8-.21 11.72 0 17.52h-54.19v-2.34c3.76-.86 4.3-1.93 4.3-6v-58.5c0-4.08-.54-5.16-4.3-6v-2.39h52.46c-.21 5.48-.21 10.86 0 16.34h-4.09l-1-3.12c-2.37-7.74-5.05-8.49-14.83-8.49zM414 18.83h-31.22v2.37c3.76.86 4.3 1.94 4.3 6v58.5c0 4.08-.54 5.16-4.3 6v2.37h24.72v-2.35c-3.76-.86-4.3-1.93-4.3-6V64.3h7.52c18.17 0 29.35-5.48 29.35-23.86.01-18.06-11.17-21.61-26.07-21.61zm-3.12 40.74h-7.63V27.65c0-3.55 1.5-4.08 4.73-4.08h1.72c10.11 0 13.54 6.34 13.54 16.23-.04 11.71-2.4 19.77-12.4 19.77zM471.47 45.81h-4.19V28c0-3.23.64-4.41 5.38-4.41H483c9.78 0 12.47.75 14.83 8.49l1 3.12h4.09c-.21-5.48-.21-10.86 0-16.34h-56v2.34c3.76.86 4.3 1.94 4.3 6v58.5c0 4.08-.54 5.16-4.3 6v2.37H477c18.38 0 29.78-4.95 29.78-25.15-.05-20.74-14.67-23.11-35.31-23.11zm4.73 43.54h-2.26c-5.37 0-6.66-1.72-6.66-6.56V50.54h6.56c12.69 0 16 6.88 16 19.13.01 13.12-3.84 19.68-13.64 19.68zM572.62 75.05l-15.8-45A46 46 0 0 1 554 18.83h-21.5v2.37c3.87.86 4.3 2.9 4.3 4.41 0 2.15-.54 4.52-3.65 12.15l-13.84 34.18c-5.16 12.58-8.6 19.24-10.43 22.14h13.65a93.67 93.67 0 0 1 1.61-9.24c1-4.3 2.79-10.43 5.27-18h23.86l3.22 9.57c2 6 4.41 13.54 5.05 17.63h19.13c-1.59-2.65-4.93-10.17-8.05-18.99zm-41.49-13.22l10.43-30.31 10.11 30.31zM635.94 55.27h-29V85.7c0 4.08.54 5.16 4.3 6v2.37h-24.75v-2.35c3.76-.86 4.3-1.93 4.3-6v-58.5c0-4.08-.54-5.16-4.3-6v-2.39h24.72v2.37c-3.76.86-4.3 1.94-4.3 6v23.13h29V27.22c0-4.08-.54-5.16-4.3-6v-2.39h24.72v2.37c-3.76.86-4.3 1.94-4.3 6v58.5c0 4.08.54 5.16 4.3 6v2.37h-24.69v-2.35c3.76-.86 4.3-1.93 4.3-6zM672.6 27.22c0-4.08-.54-5.16-4.3-6v-2.39H693v2.37c-3.76.86-4.3 1.94-4.3 6v58.5c0 4.08.54 5.16 4.3 6v2.37h-24.7v-2.35c3.76-.86 4.3-1.93 4.3-6z"/><path class="cls-1" d="M712.59 61.08c5.27 7.42 17.52 24 26.45 33h-25.27a136.06 136.06 0 0 0-12.36-22.36L690 54.63l9.89-12.79c5.91-7.63 13.54-17.84 15.59-23h17.63v.11c-7.1 4.08-19 16.12-22.47 19.89l-7.85 8.38zM188.32 112.89h550.71v7.53H188.32zM201.5 160.76l-13.16-26.23h7.22l9.11 18.75 7.49-18.75h6.27l-11.56 27.86q-2.22 5.37-4.56 7.27t-6.75 1.9h-2.5v-5.75h2.5a5.53 5.53 0 0 0 3.53-.88 7.25 7.25 0 0 0 1.87-2.86zM220.18 171.56v-27.4h21.89v27.4h-6.19v-22.92h-9.52v22.92h-6.18zM271.51 147.55a8.4 8.4 0 0 0-7.27-4q-5.53 0-8.38 5.34v-4.77h-5.91v36.65h6.29v-13.03a8.1 8.1 0 0 0 7.68 4.39 8.44 8.44 0 0 0 7.72-4.31 19.33 19.33 0 0 0 2.59-10.15 17.53 17.53 0 0 0-2.72-10.12zm-5.22 17.1a4.57 4.57 0 0 1-4.33 2.59 5.25 5.25 0 0 1-3.95-2 7.1 7.1 0 0 1-1.78-5v-3.91a8.68 8.68 0 0 1 1.72-5.62 5.2 5.2 0 0 1 4.19-2.14 4.43 4.43 0 0 1 4.12 2.62 14.53 14.53 0 0 1 1.38 6.79 14 14 0 0 1-1.35 6.68zM302.94 166v-12.34a16.52 16.52 0 0 0-.53-5 6.86 6.86 0 0 0-1.91-2.74 7.94 7.94 0 0 0-3.39-1.79 20.9 20.9 0 0 0-5.18-.53q-5.86 0-9 2.21a8 8 0 0 0-3.53 5.63l5.26.79q.76-4.26 6.4-4.26 5.81 0 5.81 4.26v2.06h-1.76q-16.58 0-16.57 9.44a8 8 0 0 0 2.48 6 9.06 9.06 0 0 0 6.58 2.4q6.81 0 9.28-6.1a22.31 22.31 0 0 0 1 5.53h5.89a20.12 20.12 0 0 1-.83-5.56zm-6-5.89a7.89 7.89 0 0 1-1.8 5.09 6.44 6.44 0 0 1-5.33 2.24 5 5 0 0 1-3.65-1.21 4 4 0 0 1-1.21-2.92q0-5.72 12-5.72zM328.36 157.1q5.29-1.57 5.29-6.13a7 7 0 0 0-1.84-4.72q-1.85-2.09-6.78-2.09h-14.24v27.4h15.57a8.42 8.42 0 0 0 6.13-2.12 7.31 7.31 0 0 0 2.17-5.48q0-5.31-6.3-6.86zM317 148.67h7.08q3.61 0 3.61 3.28 0 3.47-3.61 3.47H317zm10.39 17.16a4.71 4.71 0 0 1-3.31.94H317v-7.68h7.08q4.28 0 4.29 3.85a3.83 3.83 0 0 1-1.01 2.88zM336.76 171.56l8.76-27.4h7.29l8.52 27.4h-6.45l-6.19-22.6-6.92 22.6h-5.01zM388.74 157.92a16 16 0 0 0-3.2-10.31q-3.2-4-9.06-4a11.87 11.87 0 0 0-9.49 4.07 15.2 15.2 0 0 0-3.5 10.28q0 6.54 3.47 10.36a11.79 11.79 0 0 0 9.17 3.82 12.58 12.58 0 0 0 7.89-2.41 11.7 11.7 0 0 0 4.23-6.13l-5.59-.76a6.62 6.62 0 0 1-10.12 3.2 6 6 0 0 1-2.1-2.93 15.36 15.36 0 0 1-.53-4.48h18.8zm-18.83-3.28a7.89 7.89 0 0 1 2-5 6 6 0 0 1 8.59.12 6.89 6.89 0 0 1 1.78 4.83zM394.8 171.56v-27.4h6.19v10.56h10.71v-10.56h6.19v27.4h-6.19v-12.04h-10.71v12.04h-6.19zM431.95 168.79v2.77h-6.19v-27.4h6.19v11.91q0 2.69-.14 5.72a56 56 0 0 1 3.91-5.37l7-8.73v-3.53h6.19v27.4h-6.19V160.3q0-3.36.19-5.91a53.57 53.57 0 0 1-3.58 5zM480.3 157.92a16 16 0 0 0-3.2-10.31q-3.2-4-9.06-4a11.87 11.87 0 0 0-9.49 4.07 15.2 15.2 0 0 0-3.5 10.28q0 6.54 3.47 10.36a11.79 11.79 0 0 0 9.17 3.82 12.58 12.58 0 0 0 7.89-2.41 11.7 11.7 0 0 0 4.23-6.13l-5.59-.76A6.62 6.62 0 0 1 464.1 166a6 6 0 0 1-2.1-2.93 15.33 15.33 0 0 1-.53-4.48h18.8zm-18.83-3.28a7.89 7.89 0 0 1 2-5 6 6 0 0 1 8.59.12 6.89 6.89 0 0 1 1.78 4.83zM517.7 134.53h-8.22l-12.29 37h5.7l2.9-8.82H520l3 8.82h7.13zm-10.25 22.87l5.4-16.52 5.4 16.52zM550 153.66l9.55 17.9h-6.65l-7.19-13.24-4.88 5.15v8.08h-6.18v-27.4h6.18v8.14q0 2.63-.19 4.69a35.45 35.45 0 0 1 2.58-3.07l9.2-9.77h6.08zM566.6 171.56v-22.6h-7.59v-4.8h21.26v4.8h-7.48v22.6h-6.19zM590.32 168.79v2.77h-6.18v-27.4h6.18v11.91q0 2.69-.13 5.72a55.6 55.6 0 0 1 3.91-5.37l7-8.73v-3.53h6.19v27.4h-6.19V160.3q0-3.36.19-5.91a53.13 53.13 0 0 1-3.58 5zM632.76 157.1q5.24-1.57 5.24-6.1a6.94 6.94 0 0 0-1.85-4.72q-1.84-2.09-6.78-2.09h-14.19v27.4h15.57a8.42 8.42 0 0 0 6.13-2.12 7.32 7.32 0 0 0 2.17-5.48q0-5.34-6.29-6.89zm-11.39-8.44h7.08q3.61 0 3.61 3.28 0 3.47-3.61 3.47h-7.08zm10.39 17.16a4.72 4.72 0 0 1-3.31.94h-7.08v-7.68h7.08q4.29 0 4.29 3.85a3.84 3.84 0 0 1-.98 2.89zM667.76 166v-12.34a16.49 16.49 0 0 0-.53-5 6.87 6.87 0 0 0-1.91-2.74 7.94 7.94 0 0 0-3.39-1.79 20.9 20.9 0 0 0-5.18-.53q-5.86 0-9 2.21a8 8 0 0 0-3.53 5.63l5.26.79q.76-4.26 6.4-4.26 5.81 0 5.81 4.26v2.06h-1.76q-16.58 0-16.57 9.44a8 8 0 0 0 2.48 6 9.06 9.06 0 0 0 6.58 2.4q6.81 0 9.28-6.1a22.27 22.27 0 0 0 .95 5.53h5.89a20.09 20.09 0 0 1-.78-5.56zm-6-5.89a7.88 7.88 0 0 1-1.8 5.09 6.44 6.44 0 0 1-5.33 2.24 5 5 0 0 1-3.65-1.21 4 4 0 0 1-1.21-2.92q0-5.72 12-5.72zM675.59 171.56v-27.4h9.33l7.02 22.6 7.41-22.6h8.73v27.4h-5.72v-22.6h-.38l-7.41 22.6h-6.32l-7.29-22.6h-.38v22.6h-4.99zM722.15 168.79v2.77H716v-27.4h6.19v11.91q0 2.69-.14 5.72a55.94 55.94 0 0 1 3.91-5.37l7-8.73v-3.53h6.19v27.4h-6.19V160.3q0-3.36.19-5.91a53.57 53.57 0 0 1-3.58 5z"/></g></g></svg>