<svg xmlns="http://www.w3.org/2000/svg" viewBox="0 0 329.7 293.5"><style>.st0{fill:#7C0040;} .st1{fill-rule:evenodd;clip-rule:evenodd;fill:#7C0040;}</style><path d="M2.8 248.7v10.5l-.1 1.7h.1l.8-1.4 6.7-10.8h1.5v14h-1.3v-10.5l.1-1.7h-.1l-.7 1.3L3 262.7H1.4v-14h1.4zM17.7 248.7v6.2H25v-6.2h1.3v14H25V256h-7.3v6.7h-1.3v-14h1.3zM34.7 248.7c2.9 0 4.1 1.6 4.1 3.5 0 1.3-.6 2.6-2.4 3.1v.1c1.7.3 2.8 1.7 2.8 3.3 0 3.9-3.9 3.9-4.6 3.9H31v-14h3.7zm-2.4 6.1h2.2c1.9 0 2.8-1.1 2.8-2.7 0-1.7-1.3-2.4-2.8-2.4h-2.3v5.1zm0 6.7h2.1c1.2 0 3.4-.2 3.4-2.8 0-1.7-1.4-2.7-3.2-2.7h-2.3v5.5zM50 248.7v1.1h-5.5v5h5.2v1.1h-5.2v5.5h5.8v1.1h-7.2v-14H50zM63.6 262.2c-.8.3-2 .5-3.5.5-4.8 0-7-3.4-7-6.9 0-3.7 2-7.4 7.1-7.4 1.2 0 2.2.2 3.2.5l-.1 1.2c-1.5-.6-2.8-.6-3.2-.6-3.5 0-5.6 2.7-5.6 6.2 0 3.6 2.5 5.8 5.5 5.8 1.3 0 2.6-.2 3.6-.7v1.4zM74.7 248.7v1.1h-4.2v12.8h-1.3v-12.8H65v-1.1h9.7zM79 248.7v10.5l-.1 1.7h.1l.8-1.4 6.7-10.8H88v14h-1.3v-10.5l.1-1.7h-.1l-.7 1.3-6.8 10.9h-1.5v-14H79zM94 248.7v12.8h7.4v-12.8h1.3v12.8h1.7v4.2H103v-3H92.6v-14H94zM109.1 248.7v10.5l-.1 1.7h.1l.8-1.4 6.7-10.8h1.5v14h-1.3v-10.5l.1-1.7h-.1l-.7 1.3-6.8 10.9h-1.5v-14h1.3zM128.2 248.5c4.3 0 6.3 3.4 6.3 7.2 0 4.6-2.8 7.1-6.3 7.1s-6.3-2.5-6.3-7.1c0-3.8 2.1-7.2 6.3-7.2zm0 13.1c2.4 0 4.9-1.8 4.9-6s-2.5-6-4.9-6c-2.4 0-4.9 1.8-4.9 6s2.5 6 4.9 6zM139.7 248.7v6.2h7.3v-6.2h1.3v14H147V256h-7.3v6.7h-1.3v-14h1.3zM154.2 248.7v6.2h7.3v-6.2h1.3v14h-1.3V256h-7.3v6.7h-1.3v-14h1.3zM172.9 248.5c4.3 0 6.3 3.4 6.3 7.2 0 4.6-2.8 7.1-6.3 7.1s-6.3-2.5-6.3-7.1c0-3.8 2-7.2 6.3-7.2zm0 13.1c2.4 0 4.9-1.8 4.9-6s-2.5-6-4.9-6c-2.4 0-4.9 1.8-4.9 6s2.5 6 4.9 6zM187.4 256.8v1.1H183v-1.1h4.4zM199.3 247.8v1.7h.6c3.9 0 6.1 3 6.1 6s-2.2 6-6.1 6h-.6v1.7H198v-1.7h-.6c-3.9 0-6.1-3-6.1-6s2.2-6 6.1-6h.6v-1.7h1.3zm-1.3 2.8h-.6c-2.7 0-4.7 1.8-4.7 4.9 0 3.1 2 4.9 4.7 4.9h.6v-9.8zm1.3 9.8h.6c2.7 0 4.7-1.8 4.7-4.9 0-3.1-2-4.9-4.7-4.9h-.6v9.8zM211.1 248.7v10.5l-.1 1.7h.1l.8-1.4 6.7-10.8h1.5v14h-1.3v-10.5l.1-1.7h-.1l-.7 1.3-6.8 10.9h-1.5v-14h1.3zM226.1 248.7v6.2h7.3v-6.2h1.3v14h-1.3V256h-7.3v6.7h-1.3v-14h1.3zM244.9 248.7l5.5 14H249l-1.5-3.8h-6.9l-1.5 3.8h-1.4l5.5-14h1.7zm-.8 1.3l-.5 1.3-2.5 6.4h6l-2.5-6.4-.5-1.3zM254.8 248.7v6.2h7.3v-6.2h1.3v14H262V256h-7.3v6.7h-1.3v-14h1.4zM277.6 262.2c-.8.3-2 .5-3.5.5-4.8 0-7-3.4-7-6.9 0-3.7 2-7.4 7.1-7.4 1.2 0 2.2.2 3.2.5l-.1 1.2c-1.5-.6-2.8-.6-3.2-.6-3.5 0-5.6 2.7-5.6 6.2 0 3.6 2.5 5.8 5.5 5.8 1.3 0 2.6-.2 3.6-.7v1.4zM286 248.5c4.3 0 6.3 3.4 6.3 7.2 0 4.6-2.8 7.1-6.3 7.1s-6.3-2.5-6.3-7.1c0-3.8 2.1-7.2 6.3-7.2zm0 13.1c2.4 0 4.9-1.8 4.9-6s-2.5-6-4.9-6c-2.4 0-4.9 1.8-4.9 6s2.5 6 4.9 6zM299.9 248.7c2.9 0 4.1 1.6 4.1 3.5 0 1.3-.6 2.6-2.4 3.1v.1c1.7.3 2.8 1.7 2.8 3.3 0 3.9-3.9 3.9-4.6 3.9h-3.6v-14h3.7zm-2.4 6.1h2.2c1.9 0 2.9-1.1 2.9-2.7 0-1.7-1.3-2.4-2.8-2.4h-2.3v5.1zm0 6.7h2.1c1.2 0 3.4-.2 3.4-2.8 0-1.7-1.4-2.7-3.2-2.7h-2.3v5.5zM313.4 248.7l5.5 14h-1.4l-1.5-3.8h-6.9l-1.5 3.8h-1.4l5.5-14h1.7zm-.9 1.3l-.5 1.3-2.5 6.4h6l-2.5-6.4-.5-1.3zM329.7 262.6h-1.3v-6h-2.8l-3.1 6h-1.6l3.4-6.2c-1.8-.5-2.8-2-2.8-3.7 0-2.1 1.4-4 4.3-4h3.9v13.9zm-1.3-12.8h-2.7c-1.8 0-2.8 1.3-2.8 2.9 0 1.9 1.4 2.8 2.8 2.8h2.7v-5.7z" class="st0"/><g><path d="M2.4 275.3v8.3l.6-.6 7.7-7.6h2.2l-8.7 8.5 9.7 9.5h-2.4l-8.6-8.6-.4-.5v9H.7v-18h1.7zM49.1 275.1c5.5 0 8.1 4.4 8.1 9.2 0 5.9-3.6 9.2-8.1 9.2-4.6 0-8.1-3.2-8.1-9.2-.1-4.8 2.6-9.2 8.1-9.2zm0 16.9c3.1 0 6.3-2.3 6.3-7.7s-3.2-7.7-6.3-7.7c-3.1 0-6.3 2.4-6.3 7.7 0 5.4 3.1 7.7 6.3 7.7zM97.6 291.7l.7-2.4 6-14h2.7v18h-1.7V277h-.1l-.9 2.4-6 14h-1.7l-5.9-14-.9-2.4h-.1l.1 2.4v13.9h-1.7v-18h2.7l6 14 .7 2.4h.1zM151.8 275.3v18h-1.7v-16.5h-9.4v16.5H139v-18h12.8zM191 275.3l7.1 18h-1.8l-2-4.9h-8.9l-2 4.9h-1.8l7.1-18h2.3zm-1.1 1.7l-.6 1.7-3.3 8.2h7.7l-3.3-8.2-.5-1.7zM229.7 275.3v7.9h9.3v-7.9h1.7v18H239v-8.6h-9.3v8.6H228v-18h1.7zM274.5 275.3v13.5l-.1 2.2h.1l1-1.8 8.7-13.9h1.9v18h-1.7v-13.5l.1-2.2h-.1l-.9 1.7-8.8 14h-1.9v-18h1.7zM328.1 293.3h-1.7v-7.7h-3.6l-4 7.7h-2.1l4.4-8c-2.3-.7-3.6-2.6-3.6-4.8 0-2.7 1.8-5.2 5.6-5.2h5v18zm-1.7-16.5h-3.5c-2.3 0-3.6 1.6-3.6 3.7 0 2.5 1.8 3.6 3.6 3.6h3.5v-7.3z" class="st0"/></g><g><path d="M62.6 132.7c-6.7 0-12.1 5.4-12.1 11.9 0 6.7 5.4 12.1 12.1 12.1 6.7 0 12.1-5.4 12.1-12.1.1-6.4-5.4-11.9-12.1-11.9zm0 22.2c-5.4 0-9.8-4.6-9.8-10.3 0-5.6 4.4-10.3 9.8-10.3s9.8 4.6 9.8 10.3c.1 5.7-4.3 10.3-9.8 10.3zm3-10c1.7-.8 1.9-1.9 1.9-2.7 0-3.1-2.5-3.6-4-3.6h-5.2v12.1h2.3v-5h2.1c2.3 0 2.3 1.1 2.3 2.1 0 2.1 0 2.3.4 2.9h2.3c-.4-.8-.4-1-.4-2.9-.1-1.2-.3-2.5-1.7-2.9zm-2.5-.9h-2.5v-3.8h2.3c1.5 0 2.3.4 2.3 1.9-.1.9-.3 1.9-2.1 1.9z" class="st1"/></g><g><path d="M210.4 52.4c4.3 1.2 10.2 3.3 15.5 7V.2c-7.5 3.3-15.1 3.3-20.5 3.3-5.2 0-11.4-2.3-30.2-3.3-5.2-.4-10.8 0-16.6.6-15.3 1.9-31.3 6.8-41.4 13.3-9.7 5-18.8 12.4-25.7 20.3 23.2 8.3 45.6 17.4 67.1 27.3 23.2 10.6 45.4 21.9 67.3 33.5V83.5c-19.1-10.8-36.2-20.1-59-30 4.6-2.3 15.3-3.9 23.4-3.9 7.3.1 13.3 1 20.1 2.8zm-51.8 32.1c23.2 10.4 45.4 21.7 67.3 33.5v-11.4c-21.9-11.8-44.1-23-67.3-33.5-23.6-10.9-48.2-20.9-73.7-29.8-1.9 3.1-3.5 6.4-4.8 9.7 27.2 9.4 53.3 19.9 78.5 31.5zm-41.8 57c12.8 6.8 27.5 10.8 41.8 13 9.3 1.4 18.6 1.9 27.3 1.9 3.1 0 6.8-.2 11.2-.8 4.5-.6 7.9-1 10.6-1 7.3 0 13.3.6 18.2 1.7v-4.6c-21.9-11.8-44.1-23-67.3-33.5-26.5-12-54-23-83-32.9 2.7 26.2 19.5 45 41.2 56.2zm-72-122.4v11.4c10.4 2.9 20.7 6.2 30.7 9.7 3.1 1 6.2 2.1 9.3 3.1 1.9-3.1 4.3-6.2 6.6-8.9-5.2-1.9-10.6-3.9-15.9-5.6-10-3.3-20.2-6.6-30.7-9.7zm0 22.6v11.4c10.4 3.1 20.7 6.2 30.7 9.7.4.2.8.2 1.4.4.8-3.5 1.7-7 3.1-10.2-1.5-.4-3.1-1-4.4-1.5-10.1-3.4-20.3-6.7-30.8-9.8zM75.4 74l.2.2c28.8 9.7 56.5 20.7 83 32.9 23.2 10.4 45.4 21.7 67.3 33.5v-11.4c-21.9-11.8-44.1-23-67.3-33.5-26.1-12-53.2-22.8-81.6-32.5-.8 2.9-1.2 6-1.4 9.1-.2.6-.2 1.2-.2 1.7zm-30.6 1.8c10.4 3.1 20.7 6.4 30.7 9.7v-1.4c-.2-1.9-.4-3.9-.4-5.8 0-1.5 0-2.9.2-4.3-10.1-3.3-20.1-6.6-30.6-9.5v11.3z" class="st1"/></g><g><path d="M210.4 214.5l21.8-8.9v-.7c0-1.3-.6-3.4-2-4.2h23.1c-1.3.7-2 2.9-2 4.2v23.8c0 1.3.7 3.4 2 4.2h-23.1c1.4-.7 2-2.9 2-4.2v-11.3l-21.8 8.6v2.7c0 1.3.7 3.4 2 4.2h-23.1c1.3-.7 2-2.9 2-4.2v-23.8c0-1.3-.7-3.4-2-4.2h23.1c-1.3.7-2 2.9-2 4.2v9.6zM164.4 200.8h-20.3l-21.2 29.7c-.6.7-1.7 1.6-3.4 2.4h21.2c-.4-.4-.6-1-.6-1.7 0-.4.3-1.4 1.3-2.9l8.7-13.2h.3l8.9 13.2c.1.1.3.6.6 1s.6.7.7 1.1c.1.3.1.6.1.7 0 .7-.3 1.3-1 1.4v.3h25.8c-1.1-.6-1.9-1.1-2.4-1.7-.7-.7-1.3-1.6-2.2-2.7l-16.8-23.1c-.6-.9-.9-1.6-.9-2 .1-.5 0-2.1 1.2-2.5zM321.6 224l-11.7-17.9c-.4-.7-1-1.4-1-1.9 0-.6-.6-3 .7-3.4h-28.7L267.3 224h-7.5v13.3c1.7-.7 5.6-3.6 8.5-3.6h52.3c2.9 0 6.4 2.9 8.2 3.6V224h-7.2zm-34.5-13.9h6.3l8.1 13.9h-21.2l6.8-13.9zM118.3 209.9c-1.7-2.1-3.9-4.2-6.9-5.7-2.9-1.7-6.3-3-10.2-3.9-3.9-1-8.2-1.4-12.6-1.4s-8.6.4-12.5 1.4c-4 .9-7.4 2.1-10.3 3.9-3 1.7-5.3 3.6-6.9 5.7-1.6 2.1-2.4 4.4-2.4 6.9 0 3.2 1.4 6.2 4.3 8.9 2.9 2.9 6.7 5 11.6 6.6 4.9 1.7 10.3 2.4 16.2 2.4 4.6 0 8.7-.4 12.6-1.4 3.9-.9 7.3-2.1 10.3-3.9 2.9-1.7 5.2-3.6 6.7-5.7 1.6-2.3 2.4-4.6 2.4-6.9.1-2.4-.7-4.7-2.3-6.9zM100.4 221c-1.3 1.3-2.9 2.2-5 2.9-2 .7-4.3 1.1-6.7 1.1-2.4 0-4.7-.4-6.7-1.1-2.2-.7-3.7-1.6-5-2.9-1.1-1.3-1.7-2.6-1.7-4.2s.6-2.9 1.7-4.2c1.3-1.3 2.9-2.2 5-2.9 2-.7 4.3-1 6.7-1 2.4 0 4.7.3 6.7 1 2.2.7 3.7 1.6 5 2.9 1.1 1.3 1.9 2.6 1.9 4.2s-.7 2.9-1.9 4.2zM49.4 220.8v13.9c-1.6-.1-3.6-.3-5.9-.3-.9 0-2 0-3.4.1-1.6.1-2.7.1-3.7.1-6.7 0-12.7-.7-18.2-2.4-5.6-1.6-9.9-3.7-13-6.6-3.3-2.7-4.9-5.7-4.9-8.9 0-2.4 1-4.7 2.7-6.9 1.9-2.1 4.4-4 7.7-5.7 3.3-1.7 7-3 11.5-3.9 4.4-1 9.2-1.4 14.2-1.4 1 0 2.3 0 3.7.1 1.6.1 2.7.1 3.4.1 2.3 0 4.3-.1 5.9-.3v13.6c-1.7-.9-3.7-1.6-6-2-2.3-.6-4.7-.7-7.2-.7-2.7 0-5.3.3-7.6 1-2.1.6-4 1.4-5.2 2.6-1.3 1.1-2 2.3-2 3.6 0 1.1.7 2.3 1.9 3.4 1.3 1.1 3 1.9 5.3 2.6 2.3.6 4.7.9 7.6.9 2.6 0 5-.3 7.3-.7 2.3-.4 4.3-1.2 5.9-2.2z" class="st1"/></g></svg>