<svg xmlns="http://www.w3.org/2000/svg" width="317" height="93" viewBox="0 0 317 93">
    <g fill="none" fill-rule="nonzero">
        <g fill="#63686D">
            <path d="M189.459 70.201c0 2.86-1.859 5.005-4.862 5.005-1.859 0-3.289-.572-4.29-1.573l1.43-1.43c1.001.43 1.859.715 2.86.715 1.43 0 2.431-.715 2.431-2.145v-.572c-.572.858-1.716 1.144-2.717 1.144-2.86 0-4.29-1.859-4.29-4.719v-4.862h2.431v4.72c0 1.858.858 2.43 2.145 2.43 1.43 0 2.288-.858 2.288-2.717v-4.433h2.431v8.437h.143zM199.04 71.488v-7.293h-4.29v7.293h-2.431v-9.724h9.152v9.724h-2.431zM214.198 66.626c0 2.717-2.002 5.005-4.719 5.005-1.001 0-2.002-.429-2.574-1.144v4.576h-2.431V61.764h1.716l.143 1.43c.715-.858 1.859-1.43 3.289-1.43 2.717-.143 4.576 2.145 4.576 4.862zm-7.436 0c0 1.573 1.287 2.574 2.574 2.574s2.574-1 2.574-2.574c0-1.573-1.144-2.574-2.574-2.574s-2.574 1.001-2.574 2.574zM224.065 71.488l-.143-1.43c-.715.858-1.859 1.43-3.289 1.43-2.717 0-4.719-2.288-4.719-5.005s2.002-5.005 4.719-5.005c1.287 0 2.574.572 3.289 1.573l.143-1.43h1.716v9.724h-1.716v.143zm-.572-4.862c0-1.573-1.287-2.574-2.574-2.574s-2.574 1.001-2.574 2.574 1.144 2.574 2.574 2.574c1.287 0 2.574-1 2.574-2.574zM233.789 61.764c2.288 0 3.289 1.001 3.289 2.717 0 .858-.429 1.716-1.287 2.002 1.144.286 1.716 1.144 1.716 2.145 0 2.002-1.144 2.86-3.718 2.86h-5.148v-9.724h5.148zm-2.717 3.861h2.431c.715 0 1.001-.286 1.001-.858 0-.572-.286-.858-1.001-.858h-2.431v1.716zm2.717 3.718c1.001 0 1.287-.429 1.287-1 0-.573-.286-1.002-1.144-1.002h-2.717v2.002h2.574zM241.225 71.488h-2.574l4.433-9.724h1.573l4.433 9.724h-2.574l-2.717-6.149-2.574 6.15zM257.098 71.488v-2.86h-1.001c-.858 0-1.144.286-1.716 1.287l-1.144 1.573h-2.717l1.287-1.859c.286-.429.572-1 1.001-1.287-1.287-.429-2.145-1.716-2.145-3.003 0-1.573 1.001-3.575 4.29-3.575h4.576v9.724h-2.431zm-2.431-7.293c-1.001 0-1.573.43-1.573 1.144 0 .715.429 1.287 1.573 1.287h2.431v-2.43h-2.431zM276.117 66.626c0 2.717-2.288 5.005-5.005 5.005-2.431 0-4.29-1.716-4.862-3.86h-1.573v3.717h-2.431v-9.724h2.431v3.575h1.573c.572-2.145 2.431-3.718 4.862-3.718 2.717 0 5.005 2.288 5.005 5.005zm-2.574 0c0-1.573-1.287-2.574-2.574-2.574s-2.574 1.001-2.574 2.574 1.144 2.574 2.574 2.574 2.574-1 2.574-2.574zM291.99 73.347v-1.859h-13.585v-9.724h2.431v7.293h3.575v-7.293h2.431v7.293h3.575v-7.293h2.431v7.293h1.573v4.147h-2.431zM303.859 71.488l-.143-1.43c-.715.858-1.859 1.43-3.289 1.43-2.717 0-4.719-2.288-4.719-5.005s2.002-5.005 4.719-5.005c1.287 0 2.574.572 3.289 1.573l.143-1.43h1.716v9.724h-1.716v.143zm-.572-4.862c0-1.573-1.287-2.574-2.574-2.574s-2.574 1.001-2.574 2.574 1.144 2.574 2.574 2.574c1.287 0 2.574-1 2.574-2.574zM314.298 71.488v-2.86h-1.001c-.858 0-1.144.286-1.716 1.287l-1.144 1.573h-2.717l1.287-1.859c.286-.429.572-1 1.001-1.287-1.287-.429-2.145-1.716-2.145-3.003 0-1.573 1.001-3.575 4.29-3.575h4.576v9.724h-2.431zm-2.431-7.293c-1.001 0-1.573.43-1.573 1.144 0 .715.429 1.287 1.573 1.287h2.431v-2.43h-2.431zM185.169 90.078c-.572-.858-.858-1.287-1.859-1.287h-.715v3.861h-2.431v-9.724h2.431v3.575h.572c.858 0 1.287-.286 1.859-1.287l1.573-2.288h2.717l-2.145 3.29c-.429.571-1.001 1.286-1.43 1.43.429.142 1.001.714 1.43 1.43l2.288 3.574h-2.717l-1.573-2.574zM200.327 87.79c0 2.717-2.288 5.005-5.005 5.005s-5.005-2.288-5.005-5.005 2.288-5.005 5.005-5.005 5.005 2.145 5.005 5.005zm-7.579 0c0 1.573 1.144 2.574 2.574 2.574 1.287 0 2.574-1 2.574-2.574 0-1.573-1.287-2.574-2.574-2.574s-2.574 1.001-2.574 2.574zM210.48 92.652v-5.72l-2.717 3.146-2.717-3.146v5.72h-2.431v-9.724h1.573l3.575 4.147 3.575-4.147h1.573v9.724h-2.431zM222.635 92.652V85.36h-4.29v7.293h-2.431v-9.724h9.152v9.724h-2.431zM235.505 92.652l-.143-1.43c-.715.858-1.859 1.43-3.289 1.43-2.717 0-4.719-2.288-4.719-5.005s2.002-5.005 4.719-5.005c1.287 0 2.574.572 3.289 1.573l.143-1.43h1.716v9.724h-1.716v.143zm-.572-4.862c0-1.573-1.287-2.574-2.574-2.574s-2.574 1.001-2.574 2.574 1.144 2.574 2.574 2.574c1.287 0 2.574-1 2.574-2.574zM246.802 92.652v-3.718h-4.29v3.718h-2.431v-9.724h2.431v3.575h4.29v-3.575h2.431v9.724h-2.431zM258.814 92.652v-5.72l-5.005 5.72h-1.573v-9.724h2.431v5.72l5.005-5.72h1.573v9.724h-2.431zM269.968 92.652v-2.86h-1.001c-.858 0-1.144.286-1.716 1.287l-1.144 1.573h-2.717l1.287-1.859c.286-.429.572-1 1.001-1.287-1.287-.429-2.145-1.716-2.145-3.003 0-1.573 1.001-3.575 4.29-3.575h4.576v9.724h-2.431zm-2.288-7.293c-1.001 0-1.573.43-1.573 1.144 0 .715.429 1.287 1.573 1.287h2.431v-2.43h-2.431z"/>
        </g>
        <path fill="#F00" d="M136.263 28.016c-3.861-9.724-13.299-16.73-24.453-16.73-4.004 0-7.865.857-11.297 2.573V.846H85.498V13.86c-3.432-1.573-7.15-2.574-11.297-2.574H.27V26.3h24.31v35.464h15.015V26.3h11.297c-1.573 3.432-2.574 7.15-2.574 11.297 0 14.443 11.726 26.17 26.169 26.17 4.004 0 7.865-.859 11.297-2.575v31.46h15.015v-31.46c3.432 1.573 7.15 2.574 11.297 2.574 11.154 0 20.592-7.007 24.453-16.73v14.728h15.015V26.3h28.743V11.285h-44.044v16.731zM74.487 48.751c-6.149 0-11.297-5.005-11.297-11.297 0-6.149 5.005-11.297 11.297-11.297 6.149 0 11.297 5.005 11.297 11.297-.143 6.292-5.148 11.297-11.297 11.297zm37.323 0c-6.149 0-11.297-5.005-11.297-11.297 0-6.149 5.005-11.297 11.297-11.297 6.149 0 11.297 5.005 11.297 11.297 0 6.292-5.005 11.297-11.297 11.297z"/>
    </g>
</svg>
