<svg xmlns="http://www.w3.org/2000/svg" width="259" height="77" style=""><rect id="backgroundrect" width="100%" height="100%" x="0" y="0" fill="none" stroke="none"/>
    <defs>
        <linearGradient id="a" x1="49.482%" x2="50%" y1="23.476%" y2="100%">
            <stop offset="0%" stop-color="#3ACA60" stop-opacity=".076"/>
            <stop offset="100%" stop-color="#FFF" stop-opacity=".086"/>
        </linearGradient>
    </defs>
    
<g class="currentLayer" style=""><title>Layer 1</title>
        <path fill="#ff0000" d="M0.7697162189852271,41.879232655539994 l13.018086703028928,-8.834844148981384 L28.27213103664733,2.5717442408869156 l11.549470811405874,10.81890005834516 l12.468394578678506,4.146745031185737 l13.93344875027337,-1.6226986475208904 l13.567778827379353,5.5908104662484455 l13.200921664475937,7.030785064384629 l14.484328114633188,-4.688099117795648 l12.466020098659712,-6.310797765316537 l14.265875952904295,-6.265798559124781 l13.273343305049101,15.68699600090783 l12.986031222775232,2.819950254683362 l13.50248062686256,-9.451196912577554 l13.114253143790016,3.4172124459557573 l13.563029867341767,-12.081605056332004 l13.225853704673257,-4.0281107603165625 l12.703468100538943,3.4908475106331753 l13.593898107586066,-2.398594051251467 l13.451429306458527,6.171709309814746 l13.59271086757667,15.062461563458614 l13.352888385678645,8.53894027796287 l13.009776022963155,-28.30040985768786 l12.906486142145688,12.962498607843346 v80.66584974180317 L2.4817163125344877,105.7017431585381 z" id="svg_16" class="selected" transform="translate(-5.357142925262451,0.3571428656578064) " fill-opacity="1" opacity="0.05"/>
        
    <g class="" id="svg_4"><rect id="svg_5" fill="#22C" fill-opacity="0.15" stroke="#22C" stroke-width="0.5" display="none" style="" x="599.0660712718964" y="475.477011680603" width="0" height="0"/><g id="svg_6" display="inline"><path id="selectedBox0" fill="none" stroke="#22C" stroke-width="1" stroke-dasharray="5,5" style="" d="M1420.056984205246,1198.103267917633 L1558.2181036663055,1198.103267917633 L1558.2181036663055,1437.601307849884 L1420.056984205246,1437.601307849884 z"/><g display="inline" id="svg_15"><circle id="selectorGrip_resize_nw" class="selector-resize-grip" r="5" pointer-events="all" cx="1420.056988477707" cy="1198.103286266327" x="843.9801364135742" y="722.8560264205933"/><circle id="selectorGrip_resize_n" class="selector-resize-grip" r="5" pointer-events="all" cx="1489.137554883957" cy="1198.103286266327" x="913.060696144104" y="722.8560264205933"/><circle id="selectorGrip_resize_ne" class="selector-resize-grip" r="5" pointer-events="all" cx="1558.218121290207" cy="1198.103286266327" x="982.1412558746338" y="722.8560264205933"/><circle id="selectorGrip_resize_e" class="selector-resize-grip" r="5" pointer-events="all" cx="1558.218121290207" cy="1317.852309703827" x="982.1412558746338" y="842.6050463867188"/><image xmlns:xlink="http://www.w3.org/1999/xlink" id="selectorGrip_resize_se" x="1558.218121290207" y="1437.601333141327" width="28" height="28" pointer-events="all" cx="982.1412558746338" cy="962.3540663528443" xlink:href="images/resize.svg"/><circle id="selectorGrip_resize_s" class="selector-resize-grip" r="5" pointer-events="all" cx="1489.137554883957" cy="1437.601333141327" x="913.060696144104" y="962.3540663528443"/><circle id="selectorGrip_resize_sw" class="selector-resize-grip" r="5" pointer-events="all" cx="1420.056988477707" cy="1437.601333141327" x="843.9801364135742" y="962.3540663528443"/><circle id="selectorGrip_resize_w" class="selector-resize-grip" r="5" pointer-events="all" cx="1420.056988477707" cy="1317.852309703827" x="843.9801364135742" y="842.6050463867188"/><line id="selectorGrip_rotateconnector" stroke="#22C" stroke-width="1" y2="487.58204221725464" x2="579.601078748703" y1="487.58204221725464" x1="579.601078748703"/><image xmlns:xlink="http://www.w3.org/1999/xlink" id="selectorGrip_rotate" x="1477.137554883957" y="1166.103286266327" width="24" height="24" cx="913.060696144104" cy="702.8560264205933" xlink:href="images/rotate.svg"/></g></g><line stroke-width="1" stroke="#000" class="measure_line" y2="487.58204221725464" x2="579.601078748703" y1="487.58204221725464" x1="579.601078748703" id="svg_7" style="display: none;"/><line stroke-width="1" stroke-dasharray="5,5" stroke="#000" class="x1_line" shape-rendering="crispEdges" y2="487.58204221725464" x2="579.601078748703" y1="487.58204221725464" x1="579.601078748703" id="svg_8" style="display: none;"/><line stroke-width="1" stroke-dasharray="5,5" stroke="#000" class="y1_line" shape-rendering="crispEdges" y2="487.58204221725464" x2="579.601078748703" y1="487.58204221725464" x1="579.601078748703" id="svg_9" style="display: none;"/><line stroke-width="1" stroke-dasharray="5,5" stroke="#000" class="x2_line" shape-rendering="crispEdges" y2="487.58204221725464" x2="579.601078748703" y1="487.58204221725464" x1="579.601078748703" id="svg_10" style="display: none;"/><line stroke-width="1" stroke-dasharray="5,5" stroke="#000" class="y2_line" shape-rendering="crispEdges" y2="487.58204221725464" x2="579.601078748703" y1="487.58204221725464" x1="579.601078748703" id="svg_11" style="display: none;"/><g id="svg_12" display="none"><path id="selectedBox1" fill="none" stroke="#22C" stroke-width="1" stroke-dasharray="5,5" style="" d="M581.2661868557334,486.8520431852341 L1167.7911868557335,486.8520431852341 L1167.7911868557335,660.5321369504928 L581.2661868557334,660.5321369504928 z"/></g><g id="svg_13"><circle xmlns:xlink="http://www.w3.org/1999/xlink" id="pathpointgrip_1" display="inline" r="4" fill="#FFF" stroke="#555" stroke-width="1" cursor="move" xlink:title="Drag node to move it. Double-click node to change segment type" cx="32.7208" cy="-29.251599999999996"/><path id="segline_1" display="none" fill="none" stroke="#0FF" stroke-width="2" style="" d="M579.6010768413544,487.58204317092896 L579.6010768413544,487.58204317092896 "/><circle xmlns:xlink="http://www.w3.org/1999/xlink" id="pathpointgrip_2" display="inline" r="4" fill="#FFF" stroke="#555" stroke-width="1" cursor="move" xlink:title="Drag node to move it. Double-click node to change segment type" cx="-31.39903966522217" cy="89.93303966522217"/><path id="segline_2" display="none" fill="none" stroke="#0FF" stroke-width="2" style="" d="M 32.7208 -29.251599999999996 L -31.39903966522217 89.93303966522217"/><circle xmlns:xlink="http://www.w3.org/1999/xlink" id="pathpointgrip_3" display="inline" r="4" fill="#FFF" stroke="#555" stroke-width="1" cursor="move" xlink:title="Drag node to move it. Double-click node to change segment type" cx="31.8472" cy="-8.8872"/><path id="segline_3" display="none" fill="none" stroke="#0FF" stroke-width="2" style="" d="M -31.39903966522217 89.93303966522217 L 579.6010768413544 487.58204317092896"/></g></g></g></svg>