<svg width="259" height="35" xmlns="http://www.w3.org/2000/svg">

 <g>
  <title>background</title>
  <rect fill="none" id="canvas_background" height="37" width="261" y="-1" x="-1"/>
 </g>
 <g>
  <title>Layer 1</title>
  <g id="svg_1" fill-rule="evenodd" fill="none">
   <path id="svg_3" d="m-24.071429,33.796573l11.686,-10.447l11.219,10.579l11.374,-3.174l11.063,-6.479l12.31,-22.347l9.815,7.934l10.596,3.041l11.841,-1.19l11.53,4.1l11.22,5.156l12.309,-3.438l10.595,-4.628l12.122,-4.595l11.28,11.504l11.037,2.068l11.474,-6.931l11.145,2.506l11.527,-8.86l11.24,-2.954l10.795,2.56l11.552,-1.759l11.432,4.526l11.552,11.046l11.349,6.262l11.057,-20.754l10.969,9.506l11.17,-5.3l11.363,9.158l10.167,2.446l11.211,-5.495" stroke-width="1.5" stroke-linejoin="round" stroke-linecap="round" stroke="#0be216"/>
  </g>
 </g>
</svg>