<svg xmlns="http://www.w3.org/2000/svg" width="259" height="77" style=""><rect id="backgroundrect" width="100%" height="100%" x="0" y="0" fill="none" stroke="none"/>
    <defs>
        <linearGradient id="a" x1="49.482%" x2="50%" y1="23.476%" y2="100%">
            <stop offset="0%" stop-color="#3ACA60" stop-opacity=".076"/>
            <stop offset="100%" stop-color="#FFF" stop-opacity=".086"/>
        </linearGradient>
    </defs>
    
<g class="currentLayer" style=""><title>Layer 1</title>
        
        <path stroke="#ecabab" stroke-linecap="round" stroke-linejoin="round" stroke-width="1.2" d="M-22.600000381469727,30.49799725341797 l11.686,-10.447 L0.3049996185302728,30.62999725341797 l11.374,-3.174 l11.063,-6.479 L35.051999618530274,-1.3700027465820312 l9.815,7.934 l10.596,3.041 l11.841,-1.19 l11.53,4.1 l11.22,5.156 l12.309,-3.438 l10.595,-4.628 L125.07999961853028,5.009997253417971 l11.28,11.504 l11.037,2.068 l11.474,-6.931 l11.145,2.5060000000000002 l11.527,-8.86 l11.24,-2.954 l10.795,2.56 l11.552,-1.7590000000000003 l11.432,4.526 l11.552,11.046 l11.349,6.2620000000000005 L260.5199996185303,4.22399725341797 l10.969,9.506 l11.17,-5.3 l11.363,9.158 l10.167,2.446 L315.3999996185303,14.538997253417968 " id="svg_3" fill="none" stroke-opacity="1" transform="rotate(-180 146.39999389648438,14.629997253417969) " class=""/>
    </g></svg>