<svg xmlns="http://www.w3.org/2000/svg" width="259" height="77" style=""><rect id="backgroundrect" width="100%" height="100%" x="0" y="0" fill="none" stroke="none"/>
    <defs>
        <linearGradient id="a" x1="49.482%" x2="50%" y1="23.476%" y2="100%">
            <stop offset="0%" stop-color="#3ACA60" stop-opacity=".076"/>
            <stop offset="100%" stop-color="#FFF" stop-opacity=".086"/>
        </linearGradient>
    </defs>
    
<g class="currentLayer" style=""><title>Layer 1</title>
        <path fill="url(#a)" d="M-8.515997867563058,40.380432059526434 l12.196852251291276,-7.855791979670525 L17.25145150782794,5.428887128829957 l10.820882690429688,9.619980485677718 l11.681836966991426,3.687214602589607 l13.054469495773317,-1.4428758227825167 l12.711867535591127,4.971252834796905 l12.36815323138237,6.251653564929962 l13.57059712409973,-4.1685773770809185 l11.679612278938293,-5.611453199863434 l13.36592582321167,-5.571440677046776 l12.436006217002868,13.948607954025269 l12.166818962574006,2.507451429843903 l12.650688614130019,-8.403842292189598 l12.286952117443084,3.038526732683182 l12.707418159484863,-10.74275612592697 l12.391512455940248,-3.5817270424366 l11.902081084251403,3.1040017700195315 l12.736339104175567,-2.1327887161970143 l12.602857820987701,5.487778129339218 l12.735226760149002,13.39328263735771 l12.51053326678276,7.5926793296337145 l12.189065843105316,-25.164239349603655 l12.092291912794114,11.526031572580338 v71.72669090127945 L-6.91199778125554,97.13031442046164 z" id="svg_16" class="selected" transform="translate(-5.357142925262451,0.3571428656578064) "/>
        
    <g class="" id="svg_4"><rect id="svg_5" fill="#22C" fill-opacity="0.15" stroke="#22C" stroke-width="0.5" display="none" style="" x="599.0660712718964" y="475.477011680603" width="0" height="0"/><g id="svg_6" display="inline"><path id="selectedBox0" fill="none" stroke="#22C" stroke-width="1" stroke-dasharray="5,5" style="" d="M1420.056984205246,1198.103267917633 L1558.2181036663055,1198.103267917633 L1558.2181036663055,1437.601307849884 L1420.056984205246,1437.601307849884 z"/><g display="inline" id="svg_15"><circle id="selectorGrip_resize_nw" class="selector-resize-grip" r="5" pointer-events="all" cx="1420.056988477707" cy="1198.103286266327" x="843.9801364135742" y="722.8560264205933"/><circle id="selectorGrip_resize_n" class="selector-resize-grip" r="5" pointer-events="all" cx="1489.137554883957" cy="1198.103286266327" x="913.060696144104" y="722.8560264205933"/><circle id="selectorGrip_resize_ne" class="selector-resize-grip" r="5" pointer-events="all" cx="1558.218121290207" cy="1198.103286266327" x="982.1412558746338" y="722.8560264205933"/><circle id="selectorGrip_resize_e" class="selector-resize-grip" r="5" pointer-events="all" cx="1558.218121290207" cy="1317.852309703827" x="982.1412558746338" y="842.6050463867188"/><image xmlns:xlink="http://www.w3.org/1999/xlink" id="selectorGrip_resize_se" x="1558.218121290207" y="1437.601333141327" width="28" height="28" pointer-events="all" cx="982.1412558746338" cy="962.3540663528443" xlink:href="images/resize.svg"/><circle id="selectorGrip_resize_s" class="selector-resize-grip" r="5" pointer-events="all" cx="1489.137554883957" cy="1437.601333141327" x="913.060696144104" y="962.3540663528443"/><circle id="selectorGrip_resize_sw" class="selector-resize-grip" r="5" pointer-events="all" cx="1420.056988477707" cy="1437.601333141327" x="843.9801364135742" y="962.3540663528443"/><circle id="selectorGrip_resize_w" class="selector-resize-grip" r="5" pointer-events="all" cx="1420.056988477707" cy="1317.852309703827" x="843.9801364135742" y="842.6050463867188"/><line id="selectorGrip_rotateconnector" stroke="#22C" stroke-width="1" y2="487.58204221725464" x2="579.601078748703" y1="487.58204221725464" x1="579.601078748703"/><image xmlns:xlink="http://www.w3.org/1999/xlink" id="selectorGrip_rotate" x="1477.137554883957" y="1166.103286266327" width="24" height="24" cx="913.060696144104" cy="702.8560264205933" xlink:href="images/rotate.svg"/></g></g><line stroke-width="1" stroke="#000" class="measure_line" y2="487.58204221725464" x2="579.601078748703" y1="487.58204221725464" x1="579.601078748703" id="svg_7" style="display: none;"/><line stroke-width="1" stroke-dasharray="5,5" stroke="#000" class="x1_line" shape-rendering="crispEdges" y2="487.58204221725464" x2="579.601078748703" y1="487.58204221725464" x1="579.601078748703" id="svg_8" style="display: none;"/><line stroke-width="1" stroke-dasharray="5,5" stroke="#000" class="y1_line" shape-rendering="crispEdges" y2="487.58204221725464" x2="579.601078748703" y1="487.58204221725464" x1="579.601078748703" id="svg_9" style="display: none;"/><line stroke-width="1" stroke-dasharray="5,5" stroke="#000" class="x2_line" shape-rendering="crispEdges" y2="487.58204221725464" x2="579.601078748703" y1="487.58204221725464" x1="579.601078748703" id="svg_10" style="display: none;"/><line stroke-width="1" stroke-dasharray="5,5" stroke="#000" class="y2_line" shape-rendering="crispEdges" y2="487.58204221725464" x2="579.601078748703" y1="487.58204221725464" x1="579.601078748703" id="svg_11" style="display: none;"/><g id="svg_12" display="none"><path id="selectedBox1" fill="none" stroke="#22C" stroke-width="1" stroke-dasharray="5,5" style="" d="M581.2661868557334,486.8520431852341 L1167.7911868557335,486.8520431852341 L1167.7911868557335,660.5321369504928 L581.2661868557334,660.5321369504928 z"/></g><g id="svg_13"><circle xmlns:xlink="http://www.w3.org/1999/xlink" id="pathpointgrip_1" display="inline" r="4" fill="#FFF" stroke="#555" stroke-width="1" cursor="move" xlink:title="Drag node to move it. Double-click node to change segment type" cx="32.7208" cy="-29.251599999999996"/><path id="segline_1" display="none" fill="none" stroke="#0FF" stroke-width="2" style="" d="M579.6010768413544,487.58204317092896 L579.6010768413544,487.58204317092896 "/><circle xmlns:xlink="http://www.w3.org/1999/xlink" id="pathpointgrip_2" display="inline" r="4" fill="#FFF" stroke="#555" stroke-width="1" cursor="move" xlink:title="Drag node to move it. Double-click node to change segment type" cx="-31.39903966522217" cy="89.93303966522217"/><path id="segline_2" display="none" fill="none" stroke="#0FF" stroke-width="2" style="" d="M 32.7208 -29.251599999999996 L -31.39903966522217 89.93303966522217"/><circle xmlns:xlink="http://www.w3.org/1999/xlink" id="pathpointgrip_3" display="inline" r="4" fill="#FFF" stroke="#555" stroke-width="1" cursor="move" xlink:title="Drag node to move it. Double-click node to change segment type" cx="31.8472" cy="-8.8872"/><path id="segline_3" display="none" fill="none" stroke="#0FF" stroke-width="2" style="" d="M -31.39903966522217 89.93303966522217 L 579.6010768413544 487.58204317092896"/></g></g></g></svg>